<?xml version="1.0" encoding="UTF-8" standalone="no"?>
<!DOCTYPE svg  PUBLIC '-//W3C//DTD SVG 1.1//EN'  'http://www.w3.org/Graphics/SVG/1.1/DTD/svg11.dtd'>
<svg version="1.1" xmlns="http://www.w3.org/2000/svg">
<defs>
<font id="BonaNova-Regular" horiz-adv-x="790">
<font-face font-weight="300" x-height="440" bbox="-18 -308.048 1482 955.121" ascent="780" underline-position="-150" cap-height="665" descent="-220" panose-1="0 0 4 0 0 0 0 0 0 0" units-per-em="1000" underline-thickness="50" font-family="Bona Nova" unicode-range="U+0020-FB02"/>
<missing-glyph/>
<glyph horiz-adv-x="604" d="M501 101q0 -51 15.5 -63.5t69.5 -14.5v-23h-225v23q36 2 48 15t12 63v553q1 44 -21 67t-58 23q-68 0 -111.5 -61t-43.5 -175v-68h146v-41h-115q-17 0 -24 -7t-7 -24v-267q0 -50 12 -63t48 -15v-23h-199v23q36 2 48 15t12 63v298h-69v41h69v71q0 128 80.5 203.5 t202.5 75.5q71 0 114 -18q-4 -22 -4 -126v-545z" unicode="fl" glyph-name="fl"/>
<glyph horiz-adv-x="266" unicode=" " glyph-name="space"/>
<glyph horiz-adv-x="194" d="M87 202q-2 298 -15 463l92 42q-2 -262 -49 -505h-28zM97 -15q-22 0 -37 15t-15 37q0 21 15 36t37 15t37 -15t15 -36q0 -22 -15 -37t-37 -15z" unicode="!" glyph-name="exclam"/>
<glyph horiz-adv-x="263" d="M109 680q-40 8 -81 0q15 -169 29 -248h23q14 79 29 248zM235 680q-40 8 -81 0q15 -169 29 -248h23q14 79 29 248z" unicode='&quot;' glyph-name="quotedbl"/>
<glyph horiz-adv-x="529" d="M525 415h-100l-38 -215h100l-10 -51h-99l-26 -149h-52l26 149h-180l-26 -149h-51l26 149h-100l9 51h100l38 215h-100l10 51h99l26 149h51l-26 -149h180l26 149h52l-26 -149h100zM335 200l38 215h-180l-38 -215h180z" unicode="#" glyph-name="numbersign"/>
<glyph horiz-adv-x="479" d="M247 317q5 -2 25.5 -10.5t27 -12t24.5 -12t25 -14.5t20.5 -16t19.5 -19.5t13 -22.5t10 -28t3 -32q0 -70 -48 -117.5t-133 -47.5q-20 0 -43 3l-19 -109l-40 4l20 115q-86 28 -86 107q0 46 18 77h23q6 -90 54 -130l33 198q-54 25 -84 55.5t-30 82.5q0 65 46 106t118 46 l17 102l41 -5l-17 -98q66 -6 108 -26v-116h-23q-11 90 -92 101zM149 419q0 -50 60 -83l28 163q-44 -4 -66 -25.5t-22 -54.5zM242 25q51 0 75.5 26t24.5 65q0 43 -27.5 67.5t-81.5 49.5l-35 -201q20 -7 44 -7z" unicode="$" glyph-name="dollar"/>
<glyph horiz-adv-x="788" d="M566 570l31 -16l-370 -580l-31 16zM192 543q56 0 95 -44t39 -118q0 -76 -39.5 -121t-96.5 -45q-55 0 -95 44t-40 118q0 76 40 121t97 45zM194 240q63 0 63 132q0 65 -17 105.5t-52 40.5q-63 0 -63 -132q0 -65 17 -105.5t52 -40.5zM599 313q55 0 94.5 -44t39.5 -118 q0 -76 -39.5 -121t-96.5 -45q-55 0 -95 44t-40 118q0 76 40 121t97 45zM601 10q63 0 63 132q0 65 -17 105.5t-52 40.5q-63 0 -63 -132q0 -146 69 -146z" unicode="%" glyph-name="percent"/>
<glyph horiz-adv-x="742" d="M593 123q37 -60 70 -80t74 -20v-23q-20 -6 -48 -6q-112 0 -175 97q-1 1 -2.5 3.5t-2.5 3.5q-97 -113 -239 -113q-89 0 -149.5 50.5t-60.5 129.5q0 80 49 133t133 96q-42 39 -61 70.5t-19 77.5q0 62 47 100t108 38q55 0 99 -34t44 -90q0 -83 -115 -142q106 -89 188 -202 q26 55 30 111q2 18 -5 27.5t-18 12.5t-30 4v23h196v-23q-65 -1 -82.5 -9.5t-21.5 -38.5q-9 -79 -42 -145q16 -24 33 -51zM311 644q-32 0 -54 -23t-22 -62q0 -36 18.5 -60.5t64.5 -62.5q69 52 69 119q0 42 -20.5 65.5t-55.5 23.5zM296 51q106 0 187 86q-39 55 -83 104 t-69 72.5t-64 57.5q-58 -39 -90.5 -83t-32.5 -103q0 -61 43.5 -97.5t108.5 -36.5z" unicode="&amp;" glyph-name="ampersand"/>
<glyph horiz-adv-x="137" d="M109 680q-40 8 -81 0q15 -169 29 -248h23q14 79 29 248z" unicode="&apos;" glyph-name="quotesingle"/>
<glyph horiz-adv-x="307" d="M269 740q-136 -193 -136 -448q0 -135 35 -259.5t101 -217.5l-25 -14q-86 97 -135 227.5t-49 263.5q0 256 184 462z" unicode="(" glyph-name="parenleft"/>
<glyph horiz-adv-x="294" d="M38 740l25 14q185 -208 185 -462q0 -133 -49.5 -263.5t-135.5 -227.5l-25 14q66 93 101 217.5t35 259.5q0 255 -136 448z" unicode=")" glyph-name="parenright"/>
<glyph horiz-adv-x="435" d="M397 578l-138 -60l76 -130l-18 -13l-100 111l-100 -111l-18 13l76 130l-137 60l7 21l146 -32l15 149h22l15 -149l147 32z" unicode="*" glyph-name="asterisk"/>
<glyph horiz-adv-x="547" d="M452 246v-41h-158v-159h-41v159h-158v41h158v158h41v-158h158z" unicode="+" glyph-name="plus"/>
<glyph horiz-adv-x="172" d="M115 99q-19 -3 -39.5 -16t-30.5 -27q12 -23 12 -61q0 -36 -13.5 -72t-35.5 -52v-24q45 7 82 61t37 124q0 38 -12 67z" unicode="," glyph-name="comma"/>
<glyph horiz-adv-x="308" d="M284 227l-257 -23l-3 56l256 22z" unicode="-" glyph-name="hyphen"/>
<glyph horiz-adv-x="194" d="M97 -15q-22 0 -37 15t-15 37q0 21 15 36t37 15t37 -15t15 -36q0 -22 -15 -37t-37 -15z" unicode="." glyph-name="period"/>
<glyph horiz-adv-x="368" d="M326 790h42l-326 -940h-42z" unicode="/" glyph-name="slash"/>
<glyph horiz-adv-x="510" d="M256 455q90 0 144.5 -69t54.5 -168q0 -100 -55 -166.5t-145 -66.5t-145 66t-55 166t55 169t146 69zM256 68q67 0 112.5 40t45.5 111q0 70 -45.5 111.5t-113.5 41.5q-67 0 -112.5 -41.5t-45.5 -111.5q0 -71 46 -111t113 -40z" unicode="0" glyph-name="zero"/>
<glyph horiz-adv-x="406" d="M254 101q0 -51 19 -63.5t92 -14.5v-23h-301v23q74 2 92 14t18 64v263l-92 -80l-21 23l165 145h35q-7 -35 -7 -76v-275z" unicode="1" glyph-name="one"/>
<glyph horiz-adv-x="447" d="M377 149h23l-8 -149h-359v23q34 19 57 37q66 50 121 123t55 135q0 34 -19 55t-61 21q-64 0 -127 -71l-19 16q68 116 180 116q64 0 97.5 -31.5t33.5 -86.5q0 -38 -12.5 -71t-42.5 -67t-57 -59t-78 -66v-3h113q53 0 76 19.5t27 58.5z" unicode="2" glyph-name="two"/>
<glyph horiz-adv-x="474" d="M230 155v-3q43 2 84 -12t72.5 -53t31.5 -97q0 -93 -74 -161.5t-182 -68.5q-92 0 -157 50q12 39 44 61q32 -38 62.5 -56.5t69.5 -18.5q70 0 111 50.5t41 120.5q0 88 -63 122.5t-164 2.5v31q95 34 139 88t44 107q0 76 -84 76q-75 0 -143 -81l-17 16q42 65 88 95.5t108 30.5 q61 0 96.5 -28.5t35.5 -82.5q0 -105 -143 -189z" unicode="3" glyph-name="three"/>
<glyph horiz-adv-x="494" d="M378 71h70v-71h-42q-26 0 -28 -39q0 -66 2 -186l-82 -15q6 114 6 240h-293v23q7 7 41 52l258 348q19 24 34 52h35zM301 349l-204 -278h207v278h-3z" unicode="4" glyph-name="four"/>
<glyph horiz-adv-x="438" d="M380 445l-14 -77h-254l-14 -122q302 -59 302 -255q0 -99 -68 -165t-178 -66q-107 0 -172 50q12 39 44 61q65 -75 137 -75q78 0 119 48.5t41 116.5q0 165 -271 212l33 267h219q51 0 76 5z" unicode="5" glyph-name="five"/>
<glyph horiz-adv-x="546" d="M414 664q-130 -40 -202 -142t-72 -248q0 -110 39.5 -180t101.5 -70q53 0 91.5 50.5t38.5 130.5q0 78 -36 116.5t-93 38.5q-41 0 -79 -17l-16 16q43 56 126 56q73 0 125.5 -50t52.5 -147q0 -108 -65.5 -170.5t-153.5 -62.5q-96 0 -156.5 75.5t-60.5 200.5q0 165 104.5 281 t254.5 148v-26z" unicode="6" glyph-name="six"/>
<glyph horiz-adv-x="469" d="M433 440v-23q-30 -50 -110.5 -278.5t-112.5 -363.5h-91q205 466 240 593h-218q-46 0 -63.5 -18t-21.5 -62h-23v152h400z" unicode="7" glyph-name="seven"/>
<glyph horiz-adv-x="499" d="M309 343q66 -38 100.5 -78t34.5 -102q0 -81 -56.5 -129.5t-142.5 -48.5q-78 0 -134 40t-56 116q0 63 38 109t96 73q-60 37 -94.5 79t-34.5 102q0 77 56.5 126.5t143.5 49.5q77 0 128 -40t51 -112q0 -65 -39 -111.5t-91 -73.5zM137 528q0 -30 11 -55t35.5 -46.5 t42.5 -33.5t52 -32q37 28 63 71t26 91q0 52 -30.5 87.5t-84.5 35.5q-53 0 -84 -34.5t-31 -83.5zM248 19q51 0 83.5 35t32.5 89q0 50 -32 82t-115 81q-43 -28 -65 -72t-22 -86q0 -54 32.5 -91.5t85.5 -37.5z" unicode="8" glyph-name="eight"/>
<glyph horiz-adv-x="546" d="M122 -224q134 38 209 144t75 257q0 109 -38 174t-100 65q-54 0 -93.5 -48.5t-39.5 -129.5q0 -77 36.5 -117.5t93.5 -40.5q40 0 78 17l16 -16q-43 -56 -125 -56q-72 0 -125.5 54.5t-53.5 151.5q0 108 66 166t157 58q95 0 154 -71t59 -194q0 -169 -107.5 -289t-261.5 -151 v26z" unicode="9" glyph-name="nine"/>
<glyph horiz-adv-x="194" d="M97 314q-22 0 -37 15t-15 37q0 21 15 36t37 15t37 -15t15 -36q0 -22 -15 -37t-37 -15zM97 -15q-22 0 -37 15t-15 37q0 21 15 36t37 15t37 -15t15 -36q0 -22 -15 -37t-37 -15z" unicode=":" glyph-name="colon"/>
<glyph horiz-adv-x="180" d="M83 314q-22 0 -37 15t-15 37q0 21 15 36t37 15t37 -15t15 -36q0 -22 -15 -37t-37 -15zM115 99q-19 -3 -39.5 -16t-30.5 -27q12 -23 12 -61q0 -36 -13.5 -72t-35.5 -52v-24q45 7 82 61t37 124q0 38 -12 67z" unicode=";" glyph-name="semicolon"/>
<glyph horiz-adv-x="547" d="M448 404v-47l-293 -131l293 -132v-47l-357 162v33z" unicode="&lt;" glyph-name="less"/>
<glyph horiz-adv-x="547" d="M452 275h-357v41h357v-41zM452 135h-357v41h357v-41z" unicode="=" glyph-name="equal"/>
<glyph horiz-adv-x="547" d="M99 404l357 -162v-33l-357 -162v47l293 132l-293 131v47z" unicode="&gt;" glyph-name="greater"/>
<glyph horiz-adv-x="355" d="M239 194q-63 -5 -102.5 19.5t-39.5 72.5q0 36 25 66.5t83 75.5q45 36 63 61.5t18 65.5q0 45 -28.5 68.5t-68.5 23.5q-42 0 -72.5 -28t-36.5 -84h-23v118q50 27 126 27q71 0 119.5 -38t48.5 -114q0 -44 -21 -76.5t-74 -77.5q-9 -8 -23.5 -20t-21 -17.5t-16 -14t-14 -13.5 t-9.5 -12t-6.5 -13t-1.5 -12q0 -27 23 -40.5t52 -11.5v-26zM178 -15q-22 0 -37 15t-15 37q0 21 15 36t37 15t37 -15t15 -36q0 -22 -15 -37t-37 -15z" unicode="?" glyph-name="question"/>
<glyph horiz-adv-x="844" d="M522 50q-17 22 -17.5 74t8.5 106h-2q-87 -180 -184 -180q-39 0 -62 31t-23 79q0 96 77 196t155 100q28 0 56 -22l64 22q-19 -203 -19 -307q0 -46 29 -46q53 0 104.5 70.5t51.5 167.5q0 114 -77.5 183.5t-206.5 69.5q-110 0 -191.5 -53.5t-119.5 -133.5t-38 -171 q0 -42 9 -83t29.5 -83t54 -74t83 -57t115.5 -31t152 4v-26q-132 -21 -228 -2.5t-158.5 71.5t-93 122t-30.5 148q0 76 28.5 147.5t79.5 128t130.5 91t174.5 34.5q147 0 235 -78.5t88 -202.5q0 -118 -75.5 -206.5t-198.5 -88.5zM355 120q48 0 105 84.5t57 158.5q0 61 -48 61 q-59 0 -106.5 -80.5t-47.5 -155.5q0 -68 40 -68z" unicode="@" glyph-name="at"/>
<glyph horiz-adv-x="635" d="M543 100q17 -50 33 -62.5t58 -14.5v-23h-239v23q53 2 63.5 14.5t-4.5 62.5l-57 172q-8 -8 -36 -8h-131q-23 0 -33.5 -5.5t-18.5 -26.5l-47 -132q-13 -40 2 -57.5t76 -19.5v-23h-207v23q31 2 49.5 20t33.5 57l177 486q29 77 35 102h49q9 -34 34 -102zM363 300q14 0 18 4 t0 15l-82 243h-2l-96 -265q6 3 28 3h134z" unicode="A" glyph-name="A"/>
<glyph horiz-adv-x="663" d="M66 0v23q43 2 56.5 15t13.5 62v465q0 50 -17 62.5t-78 14.5v23h95q52 0 110 2.5t89 2.5q102 0 150.5 -35t48.5 -97q0 -106 -133 -154v-2q94 -5 153 -49.5t59 -121.5q0 -87 -67.5 -149t-198.5 -62h-281zM221 370q17 12 52 15t61.5 9.5t54 21t43 42.5t15.5 67 q0 109 -145 109q-47 0 -64 -12.5t-17 -56.5v-195zM339 36q97 0 142 50t45 117q0 77 -58.5 113t-152.5 36q-51 0 -72.5 -13t-21.5 -46v-193q0 -42 22.5 -53t95.5 -11z" unicode="B" glyph-name="B"/>
<glyph horiz-adv-x="704" d="M406 -15q-149 0 -247.5 95.5t-98.5 246.5q0 159 109 256t267 97q54 0 111.5 -11t91.5 -26v-158h-23q-6 81 -61 118t-132 37q-115 0 -193 -76.5t-78 -220.5q0 -142 74 -230t181 -88q89 0 152 59.5t80 135.5h23l-6 -117q-96 -118 -250 -118z" unicode="C" glyph-name="C"/>
<glyph horiz-adv-x="765" d="M66 0v23q43 2 56.5 15t13.5 62v465q0 50 -17 62.5t-78 14.5v23h95q50 0 120.5 2.5t89.5 2.5q166 0 262.5 -81.5t96.5 -235.5q0 -106 -52 -188t-134 -123.5t-176 -41.5h-277zM313 36q149 0 224.5 79.5t75.5 222.5q0 296 -295 296q-58 0 -77.5 -12.5t-19.5 -56.5v-465 q0 -41 18.5 -52.5t73.5 -11.5z" unicode="D" glyph-name="D"/>
<glyph horiz-adv-x="628" d="M66 0v23q43 2 56.5 15t13.5 62v465q0 50 -17 62.5t-78 14.5v23h476v-140h-23q-3 53 -26 78.5t-88 25.5h-115q-24 0 -34 -12t-10 -52v-188q14 10 47 10h141q59 0 62 66h23v-170h-23q-1 40 -14 54t-48 14h-139q-28 0 -38.5 -9t-10.5 -35v-207q0 -42 14.5 -53t61.5 -11h139 q123 0 134 120h23l-8 -156h-519z" unicode="E" glyph-name="E"/>
<glyph horiz-adv-x="571" d="M66 0v23q43 2 56.5 15t13.5 62v465q0 50 -17 62.5t-78 14.5v23h466v-140h-23q-3 54 -25.5 79t-88.5 25h-105q-24 0 -34 -12t-10 -52v-208q14 10 47 10h141q59 0 62 67h23v-170h-23q-1 40 -14 53.5t-48 13.5h-139q-28 0 -38.5 -9t-10.5 -35v-187q0 -51 18 -63t87 -14v-23 h-260z" unicode="F" glyph-name="F"/>
<glyph horiz-adv-x="731" d="M396 -15q-140 0 -238 96t-98 246q0 159 109 256t267 97q118 0 203 -37v-153h-23q-6 80 -60.5 115t-130.5 35q-117 0 -195 -76.5t-78 -218.5q0 -145 78 -233.5t188 -88.5q108 0 142 75q12 27 12 92q0 37 -5 57.5t-21 31t-34.5 13t-58.5 3.5v23h233v-23q-20 -1 -27 -12 t-7 -35v-58q0 -67 8 -101q-36 -36 -107 -70t-157 -34z" unicode="G" glyph-name="G"/>
<glyph horiz-adv-x="801" d="M66 0v23q43 2 56.5 15t13.5 62v465q0 50 -17 62.5t-78 14.5v23h250v-23q-43 -2 -56.5 -15t-13.5 -62v-175q14 10 47 10h264q28 0 38.5 9.5t10.5 35.5v120q0 50 -17 62.5t-78 14.5v23h250v-23q-43 -2 -56.5 -15t-13.5 -62v-465q0 -50 16.5 -62.5t77.5 -14.5v-23h-249v23 q43 2 56.5 15t13.5 62v275q-13 -11 -47 -11h-264q-28 0 -38.5 -9t-10.5 -35v-220q0 -50 16.5 -62.5t77.5 -14.5v-23h-249z" unicode="H" glyph-name="H"/>
<glyph horiz-adv-x="375" d="M75 0v23q43 2 56.5 15t13.5 62v465q0 50 -17 62.5t-78 14.5v23h250v-23q-43 -2 -56.5 -15t-13.5 -62v-465q0 -50 17 -62.5t78 -14.5v-23h-250z" unicode="I" glyph-name="I"/>
<glyph horiz-adv-x="348" d="M51 -225v22q49 8 64.5 51t15.5 152v565q0 50 -17 62.5t-78 14.5v23h250v-23q-43 -2 -56.5 -15t-13.5 -62v-578q0 -104 -47 -158t-118 -54z" unicode="J" glyph-name="J"/>
<glyph horiz-adv-x="688" d="M630 -6q-53 0 -84 19.5t-63 59.5l-207 260q-23 28 -35 28q-20 0 -20 -29v-232q0 -50 16.5 -62.5t77.5 -14.5v-23h-249v23q43 2 56.5 15t13.5 62v465q0 50 -17 62.5t-78 14.5v23h250v-23q-43 -2 -56.5 -15t-13.5 -62v-167h2l214 174q38 31 38 48q0 19 -53 22v23h210v-23 q-48 -4 -109 -53l-190 -155q-17 -12 0 -33l234 -298q40 -51 61.5 -65.5t55.5 -14.5v-23q-27 -6 -54 -6z" unicode="K" glyph-name="K"/>
<glyph horiz-adv-x="563" d="M66 0v23q43 2 56.5 15t13.5 62v465q0 50 -17 62.5t-78 14.5v23h250v-23q-43 -2 -56.5 -15t-13.5 -62v-465q0 -42 14.5 -53t61.5 -11h91q69 0 98.5 32t34.5 88h23l-8 -156h-470z" unicode="L" glyph-name="L"/>
<glyph horiz-adv-x="928" d="M432 -8q-4 11 -49 112l-191 425h-2l-20 -429q-2 -39 17.5 -57t78.5 -20v-23h-213v23q38 2 53.5 20.5t17.5 56.5l23 465q2 50 -13 62.5t-74 14.5v23h170q13 -41 40 -100l202 -444h2l186 444q18 43 35 100h158v-23q-45 -2 -58.5 -15t-11.5 -62l21 -465q2 -50 17.5 -62.5 t68.5 -14.5v-23h-232v23q39 2 51 15t10 62l-19 436h-2l-183 -432q-35 -86 -42 -112h-41z" unicode="M" glyph-name="M"/>
<glyph horiz-adv-x="788" d="M632 -8q-35 52 -82 104l-365 413h-2v-409q0 -39 20 -57t76 -20v-23h-211v23q39 2 54.5 20.5t15.5 56.5v465q0 39 -22.5 57t-72.5 20v23h136q32 -54 71 -96l369 -413h2v409q0 39 -20 57t-76 20v23h211v-23q-39 -2 -54.5 -20.5t-15.5 -56.5v-465q0 -70 2 -108h-36z" unicode="N" glyph-name="N"/>
<glyph d="M395 680q139 0 237 -96t98 -250t-98 -251.5t-238 -97.5q-139 0 -236.5 96t-97.5 250t98 251.5t237 97.5zM409 25q95 0 162 77t67 213q0 149 -77 237t-180 88q-96 0 -162.5 -77t-66.5 -213q0 -149 77 -237t180 -88z" unicode="O" glyph-name="O"/>
<glyph horiz-adv-x="577" d="M66 0v23q43 2 56.5 15t13.5 62v465q0 50 -17 62.5t-78 14.5v23h95q52 0 110 2.5t69 2.5q105 0 166 -41t61 -115q0 -83 -74 -138.5t-227 -41.5v30q111 -10 160 32t49 112q0 126 -160 126q-38 0 -53.5 -13.5t-15.5 -55.5v-465q0 -50 18 -62.5t86 -14.5v-23h-259z" unicode="P" glyph-name="P"/>
<glyph d="M1465 -110l17 -17q-203 -184 -499 -181q-381 5 -621 294q-128 12 -215 106.5t-87 238.5q0 154 98 251.5t237 97.5t237 -96t98 -250q0 -132 -73.5 -224t-187.5 -117q207 -252 553 -252q247 0 443 149zM152 350q0 -149 77 -237t180 -88q95 0 162 77t67 213q0 149 -77 237 t-180 88q-96 0 -162.5 -77t-66.5 -213z" unicode="Q" glyph-name="Q"/>
<glyph horiz-adv-x="679" d="M634 -6q-39 0 -69 12.5t-45 26.5t-36 40l-206 253q-20 25 -37 26v30q96 -8 150 27t54 107q0 118 -153 118q-39 0 -55 -13t-16 -56v-465q0 -50 16.5 -62.5t77.5 -14.5v-23h-249v23q43 2 56.5 15t13.5 62v465q0 50 -17 62.5t-78 14.5v23h95q52 0 109 2.5t74 2.5 q109 0 163.5 -40t54.5 -107q0 -65 -48 -108.5t-128 -55.5v-2l207 -254q42 -51 63 -65.5t54 -14.5v-23q-22 -6 -51 -6z" unicode="R" glyph-name="R"/>
<glyph horiz-adv-x="549" d="M262 -15q-43 0 -85 10.5t-76.5 40.5t-34.5 75q0 47 18 78h23q4 -76 49.5 -120t117.5 -44q69 0 102 36t33 89q0 42 -23.5 74.5t-59 50.5t-77 39.5t-77 42t-59 57t-23.5 85.5q0 81 59.5 131t158.5 50q86 0 156 -27v-145h-23q-6 66 -39 99t-101 33q-69 0 -103 -31t-34 -76 q0 -43 33 -74.5t80 -53t94.5 -46t80.5 -69t33 -106.5q0 -92 -62 -145.5t-161 -53.5z" unicode="S" glyph-name="S"/>
<glyph horiz-adv-x="621" d="M41 665h539v-156h-23q-3 61 -27 90.5t-94 29.5h-83v-529q0 -50 17 -62.5t78 -14.5v-23h-250v23q43 2 56.5 15t13.5 62v529h-84q-69 0 -93 -30t-27 -90h-23v156z" unicode="T" glyph-name="T"/>
<glyph horiz-adv-x="774" d="M301 -15q-85 0 -129 46.5t-44 130.5v403q0 50 -15.5 62.5t-70.5 14.5v23h241v-23q-43 -2 -56.5 -15t-13.5 -62v-380q0 -135 113 -135q95 0 164 80t69 192v243q0 50 -16.5 62.5t-77.5 14.5v23h244v-23q-43 -2 -56.5 -15t-13.5 -62v-466q0 -49 14 -61.5t61 -14.5v-23h-142 q-12 32 -12 100v85h-2q-83 -200 -257 -200z" unicode="U" glyph-name="U"/>
<glyph horiz-adv-x="637" d="M291 -8q-12 51 -25 87l-180 486q-18 49 -33.5 62t-51.5 15v23h229l-1 -23q-50 -2 -58.5 -14.5t8.5 -62.5l159 -437h2l162 437q14 39 -1 57t-74 20v23h206v-23q-56 -4 -82 -77l-180 -486q-19 -54 -27 -87h-53z" unicode="V" glyph-name="V"/>
<glyph horiz-adv-x="955" d="M226 -8q-5 38 -18 87l-122 486q-12 49 -25 62t-45 15v23h234l-1 -23q-61 -2 -72.5 -15t0.5 -62l104 -412h2l188 520h51q36 -102 38 -108l157 -412h3l107 412q10 37 -9 56t-69 21l1 23h191v-23q-46 -4 -66 -77l-129 -486q-13 -49 -18 -87h-52q-6 31 -27 87l-173 463h-2 l-171 -463q-15 -42 -25 -87h-52z" unicode="W" glyph-name="W"/>
<glyph horiz-adv-x="573" d="M0 0v23q32 2 54.5 19.5t44.5 57.5l126 226q16 28 2 54l-101 185q-27 49 -45 62t-58 15v23h233v-23q-31 -2 -43 -7t-11.5 -21.5t18.5 -48.5l83 -151h2l85 151q22 39 14 57t-51 20v23h182v-23q-30 -2 -50.5 -19t-44.5 -58l-93 -160q-17 -28 -2 -57l137 -248 q28 -50 44.5 -62.5t49.5 -14.5v-23h-227v23q47 2 55 14.5t-17 62.5l-118 215h-2l-117 -215q-22 -40 -8 -57.5t68 -19.5v-23h-210z" unicode="X" glyph-name="X"/>
<glyph horiz-adv-x="553" d="M363 665h186v-23q-22 -2 -41.5 -19.5t-43.5 -57.5l-127 -214q-19 -31 -19 -68v-183q0 -50 16.5 -62.5t77.5 -14.5v-23h-249v23q43 2 56.5 15t13.5 62v183q0 37 -17 68l-120 214q-28 49 -44.5 62t-50.5 15v23h223v-23q-45 -2 -51 -15.5t20 -61.5l106 -193h2l114 193 q22 40 9 57.5t-61 19.5v23z" unicode="Y" glyph-name="Y"/>
<glyph horiz-adv-x="587" d="M37 0v23q12 14 36 52l341 552v2l-220 -7q-56 -2 -75 -29t-23 -84h-23v156h453v-23q-9 -12 -35 -52l-342 -552v-2l237 8q126 4 135 112h23l-8 -156h-499z" unicode="Z" glyph-name="Z"/>
<glyph horiz-adv-x="298" d="M276 -180h-179v920h179v-23q-73 -2 -92 -14t-19 -63v-720q0 -51 19 -63t92 -14v-23z" unicode="[" glyph-name="bracketleft"/>
<glyph horiz-adv-x="368" d="M42 790l326 -940h-42l-326 940h42z" unicode="\" glyph-name="backslash"/>
<glyph horiz-adv-x="298" d="M22 740h179v-920h-179v23q73 2 92 14t19 63v720q0 51 -19 63t-92 14v23z" unicode="]" glyph-name="bracketright"/>
<glyph horiz-adv-x="457" d="M407 308h-47l-131 293l-132 -293h-47l161 357h34z" unicode="^" glyph-name="asciicircum"/>
<glyph horiz-adv-x="377" d="M377 -32h-377v32h377v-32z" unicode="_" glyph-name="underscore"/>
<glyph horiz-adv-x="480" d="M472 85l16 -16q-46 -79 -110 -79q-66 0 -81 67h-2q-55 -72 -137 -72q-48 0 -77 24.5t-29 70.5q0 58 55.5 99t187.5 74v65q0 95 -84 95q-91 0 -113 -121h-23v125q79 38 162 38q77 0 107.5 -30t30.5 -86v-242q0 -53 33 -53q29 0 64 41zM295 88v134q-96 -24 -128.5 -55.5 t-32.5 -66.5q0 -28 17 -42t44 -14q48 0 100 44z" unicode="a" glyph-name="a"/>
<glyph horiz-adv-x="560" d="M337 457q74 0 125.5 -56.5t51.5 -153.5q0 -120 -78.5 -190t-178.5 -70q-61 0 -105 18l-54 -15v667q0 26 -7.5 35t-23.5 9q-26 0 -54 -14l-10 23l173 80l6 -6q-4 -22 -4 -126v-292q65 91 159 91zM283 32q68 0 108.5 45.5t40.5 135.5q0 85 -34.5 134.5t-91.5 49.5 q-62 0 -128 -62v-262q39 -41 105 -41z" unicode="b" glyph-name="b"/>
<glyph horiz-adv-x="471" d="M249 -15q-84 0 -143.5 58.5t-59.5 163.5q0 114 70 181t169 67q79 0 133 -36v-131h-23q-8 70 -44.5 100t-84.5 30q-64 0 -101 -48.5t-37 -124.5q0 -87 44.5 -140.5t113.5 -53.5q71 0 132 58l16 -16q-30 -49 -78 -78.5t-107 -29.5z" unicode="c" glyph-name="c"/>
<glyph horiz-adv-x="564" d="M536 77l10 -23l-163 -75l-6 6q7 28 7 92h-1q-66 -92 -160 -92q-74 0 -125.5 56.5t-51.5 153.5q0 120 78.5 190t178.5 70q46 0 79 -9v211q0 26 -7.5 35t-23.5 9q-26 0 -54 -14l-10 23l173 80l6 -6q-4 -22 -4 -126v-546q0 -26 7.5 -35t23.5 -9q21 0 43 9zM254 45 q62 0 128 62v262q-39 41 -105 41q-68 0 -108.5 -45.5t-40.5 -135.5q0 -85 34.5 -134.5t91.5 -49.5z" unicode="d" glyph-name="d"/>
<glyph horiz-adv-x="462" d="M415 109l16 -16q-64 -108 -182 -108q-84 0 -143.5 57t-59.5 163q0 111 63.5 180.5t155.5 69.5q69 0 115 -41t46 -117l-300 -39v-11q0 -91 42 -143.5t112 -52.5q72 0 135 58zM244 418q-50 0 -78.5 -35t-36.5 -93l207 27q-14 101 -92 101z" unicode="e" glyph-name="e"/>
<glyph horiz-adv-x="330" d="M400 790q12 -69 0 -138h-23q-5 47 -21 69.5t-50 22.5q-118 0 -118 -236v-68h148v-41h-117q-17 0 -24 -7t-7 -24v-267q0 -51 18 -63.5t87 -14.5v-23h-245v23q36 2 48 15t12 63v298h-69v41h69v71q0 145 80 218.5t212 60.5z" unicode="f" glyph-name="f"/>
<glyph horiz-adv-x="496" d="M389 57q93 -15 93 -87q0 -76 -80.5 -140.5t-203.5 -64.5q-68 0 -112.5 24.5t-44.5 75.5q0 61 74 105l23 -4q-27 -39 -27 -84q0 -81 109 -81q76 0 128.5 38.5t52.5 92.5q0 23 -13 36t-45 18l-213 36q-41 8 -41 55q0 55 70 110q-44 15 -71.5 45t-27.5 75q0 66 56 107 t132 41q80 0 130 -41q54 15 64 103h21q18 -23 18 -60q0 -60 -81 -66q21 -31 21 -68q0 -66 -56 -107t-132 -41q-22 0 -47 5q-31 -28 -31 -57q0 -27 26 -31zM235 421q-44 0 -69.5 -28t-25.5 -73q0 -49 29.5 -80t76.5 -31q44 0 69.5 28t25.5 73q0 49 -29.5 80t-76.5 31z" unicode="g" glyph-name="g"/>
<glyph horiz-adv-x="574" d="M475 101q0 -51 15 -63.5t69 -14.5v-23h-224v23q36 2 48 15t12 63v215q0 75 -69 75q-70 0 -143 -58v-232q0 -51 15.5 -63.5t69.5 -14.5v-23h-225v23q36 2 48 15t12 63v556q0 26 -7.5 35t-23.5 9q-26 0 -54 -14l-10 23l173 80l6 -6q-4 -22 -4 -126v-294q89 91 179 91 q113 0 113 -115v-239z" unicode="h" glyph-name="h"/>
<glyph horiz-adv-x="293" d="M150 554q-22 0 -37 15t-15 37q0 21 15 36t37 15t37 -15t15 -36q0 -22 -15 -37t-37 -15zM190 101q0 -51 15.5 -63.5t69.5 -14.5v-23h-225v23q36 2 48 15t12 63v226q0 26 -7.5 35.5t-23.5 9.5q-22 0 -54 -14l-10 23l173 79l6 -6q-4 -22 -4 -126v-227z" unicode="i" glyph-name="i"/>
<glyph horiz-adv-x="282" d="M143 554q-22 0 -37 15t-15 37q0 21 15 36t37 15t37 -15t15 -36q0 -22 -15 -37t-37 -15zM184 460l6 -6q-4 -22 -4 -126v-341q0 -101 -46 -161t-131 -61v22q48 9 72.5 58.5t24.5 156.5v325q0 26 -7.5 35.5t-23.5 9.5q-22 0 -54 -14l-10 23z" unicode="j" glyph-name="j"/>
<glyph horiz-adv-x="526" d="M420 103q34 -51 56.5 -65.5t58.5 -14.5v-23q-25 -6 -50 -6q-50 0 -82 19.5t-57 56.5l-102 152l-61 -66v-55q0 -50 12 -63t48 -15v-23h-200v23q36 2 48 15t12 63v556q0 26 -7.5 35t-23.5 9q-26 0 -54 -14l-10 23l173 80l6 -6q-4 -22 -4 -126v-446h2l123 136q32 35 32 47 q0 19 -56 22v23h200v-23q-36 -2 -58.5 -13.5t-49.5 -39.5l-74 -80z" unicode="k" glyph-name="k"/>
<glyph horiz-adv-x="286" d="M183 101q0 -51 15.5 -63.5t69.5 -14.5v-23h-225v23q36 2 48 15t12 63v556q0 26 -7.5 35t-23.5 9q-26 0 -54 -14l-10 23l173 80l6 -6q-4 -22 -4 -126v-557z" unicode="l" glyph-name="l"/>
<glyph horiz-adv-x="853" d="M753 101q0 -51 15.5 -63.5t69.5 -14.5v-23h-225v23q36 2 48 15t12 63v215q0 75 -69 75q-60 0 -133 -58v-232q0 -51 14 -63.5t62 -14.5v-23h-216v23q36 2 48 15t12 63v215q0 75 -69 75q-62 0 -133 -58v-232q0 -51 14 -63.5t61 -14.5v-23h-215v23q36 2 48 15t12 63v227 q0 26 -7.5 35t-22.5 9q-20 0 -43 -10l-10 23l161 75l6 -6q-7 -28 -7 -90h2q43 45 82 68t87 23q103 0 113 -92q84 92 169 92q114 0 114 -115v-239z" unicode="m" glyph-name="m"/>
<glyph horiz-adv-x="581" d="M481 101q0 -51 15 -63.5t70 -14.5v-23h-225v23q36 2 48 15t12 63v215q0 75 -69 75q-70 0 -143 -58v-232q0 -51 15 -63.5t70 -14.5v-23h-225v23q36 2 48 15t12 63v227q0 26 -7.5 35t-22.5 9q-20 0 -43 -10l-10 23l161 75l6 -6q-7 -28 -7 -90h2q88 91 179 91 q114 0 114 -115v-239z" unicode="n" glyph-name="n"/>
<glyph horiz-adv-x="535" d="M274 455q89 0 152 -63.5t63 -163.5q0 -112 -71 -177.5t-158 -65.5q-89 0 -151.5 63.5t-62.5 163.5q0 112 70.5 177.5t157.5 65.5zM277 25q60 0 93.5 43.5t33.5 130.5q0 93 -41 154.5t-106 61.5q-59 0 -92.5 -43.5t-33.5 -130.5q0 -92 41 -154t105 -62z" unicode="o" glyph-name="o"/>
<glyph horiz-adv-x="567" d="M264 -13q-46 0 -79 9v-120q0 -51 16.5 -63.5t78.5 -14.5v-23h-235v23q36 2 48 15t12 63v454q0 42 -31 42q-19 0 -42 -10l-10 23l161 75l6 -6q-7 -28 -7 -88h2v-1q66 92 160 92q74 0 125.5 -56.5t51.5 -153.5q0 -120 -78.5 -190t-178.5 -70zM313 397q-62 0 -128 -62v-262 q39 -41 105 -41q68 0 108.5 45.5t40.5 135.5q0 85 -34.5 134.5t-91.5 49.5z" unicode="p" glyph-name="p"/>
<glyph horiz-adv-x="548" d="M537 -142l10 -23l-163 -76l-6 6q4 20 4 126v185q-65 -91 -159 -91q-74 0 -125.5 56.5t-51.5 153.5q0 120 78.5 190t178.5 70q61 0 105 -18l54 13v-557q0 -26 7.5 -35.5t23.5 -9.5q19 0 44 10zM254 45q62 0 128 62v262q-39 41 -105 41q-68 0 -108.5 -45.5t-40.5 -135.5 q0 -85 34.5 -134.5t91.5 -49.5z" unicode="q" glyph-name="q"/>
<glyph horiz-adv-x="391" d="M49 0v23q36 2 48 15t12 63v229q0 24 -7.5 33t-22.5 9q-20 0 -43 -10l-10 23l161 75l6 -6q-7 -28 -7 -103h2q72 107 194 99q8 -74 0 -148h-23q-4 40 -18.5 57t-40.5 17q-64 0 -111 -60v-215q0 -51 16.5 -63.5t78.5 -14.5v-23h-235z" unicode="r" glyph-name="r"/>
<glyph horiz-adv-x="411" d="M191 -15q-70 0 -108.5 26.5t-38.5 69.5q0 38 27 70h23q2 -132 109 -132q47 0 72.5 23t25.5 56q0 30 -25 52t-60.5 36.5t-71 30t-60.5 43t-25 66.5q0 56 45 92.5t122 36.5q75 0 123 -27v-115h-23q-14 108 -111 108q-40 0 -61.5 -18t-21.5 -47t25 -50t60 -35.5t70.5 -30.5 t60.5 -45.5t25 -70.5q0 -65 -51 -102t-131 -37z" unicode="s" glyph-name="s"/>
<glyph horiz-adv-x="363" d="M322 87l16 -16q-57 -86 -136 -86q-107 0 -107 116v298h-69v41h69v137l85 15q-5 -64 -5 -152h148v-41h-117q-17 0 -24 -7t-7 -24v-246q0 -78 59 -78q44 0 88 43z" unicode="t" glyph-name="t"/>
<glyph horiz-adv-x="567" d="M542 77l10 -23l-162 -75l-6 6q7 28 7 92h-2q-90 -92 -174 -92q-112 0 -112 115v230q0 42 -31 42q-20 0 -43 -10l-10 23l162 75l6 -6q-4 -22 -4 -123v-206q0 -37 15 -56t52 -19q67 0 138 57v223q0 24 -7.5 33t-23.5 9q-22 0 -52 -14l-10 23l171 79l6 -6q-4 -22 -4 -123 v-219q0 -26 7.5 -35t23.5 -9q22 0 43 9z" unicode="u" glyph-name="u"/>
<glyph horiz-adv-x="464" d="M213 -10q-12 45 -31 89l-112 263q-20 47 -35 60t-45 15v23h211v-23q-51 -2 -58.5 -15t13.5 -60l97 -230h2l95 230q18 47 7 60t-65 15v23h177v-23q-25 -2 -40 -16t-34 -59l-111 -263q-15 -35 -27 -89h-44z" unicode="v" glyph-name="v"/>
<glyph horiz-adv-x="708" d="M535 440h177v-23q-27 -2 -42.5 -16t-32.5 -59l-99 -263q-18 -46 -26 -87h-44q-5 18 -31 87l-78 203l-82 -203q-18 -43 -28 -87h-43q-10 38 -30 87l-106 263q-19 47 -34 60t-46 15v23h201v-23q-43 -2 -49 -15t13 -60l91 -229h2l90 224l-2 5q-18 46 -32 59t-36 16v23h190 v-23q-45 -2 -51.5 -15t11.5 -60l88 -229h2l85 229q16 47 5 60t-63 15v23z" unicode="w" glyph-name="w"/>
<glyph horiz-adv-x="479" d="M375 100q36 -50 52 -62.5t39 -14.5v-23h-211v23q50 2 54.5 13.5t-31.5 63.5l-65 88l-63 -88q-25 -34 -27.5 -50t12.5 -21t55 -6v-23h-179v23q25 1 39.5 13.5t52.5 63.5l87 120l-89 122q-38 51 -51 62t-39 13v23h210v-23q-49 -2 -53.5 -14t30.5 -61l62 -84l60 84 q33 49 25 61t-65 14v23h180v-23q-28 -2 -43 -14t-50 -61l-84 -116z" unicode="x" glyph-name="x"/>
<glyph horiz-adv-x="472" d="M69 -235q-35 0 -54.5 21.5t-19.5 59.5q0 29 15 69h23q3 -44 15.5 -64.5t38.5 -20.5q29 0 61 43t77 135l-149 334q-21 47 -36.5 60t-44.5 15v23h213v-23q-49 -2 -56.5 -15t13.5 -60l100 -230h2l93 230q10 24 12 38t-6.5 22t-23 11t-43.5 4v23h178v-23q-25 -2 -40 -16 t-33 -59l-107 -263q-30 -74 -47.5 -114.5t-41 -85t-42.5 -65.5t-44 -35t-53 -14z" unicode="y" glyph-name="y"/>
<glyph horiz-adv-x="470" d="M39 0v23q27 31 42 52l231 331v3l-127 -4q-58 -2 -76 -26t-20 -81h-23v142h355v-23q-22 -23 -42 -52l-232 -331v-3l135 4q121 2 132 112h23l-8 -147h-390z" unicode="z" glyph-name="z"/>
<glyph horiz-adv-x="289" d="M277 717q-73 -2 -100 -34t-27 -108q0 -32 5 -86t5 -76q0 -47 -13 -77t-51 -46v-2q38 -16 51 -46t13 -77q0 -21 -5 -80t-5 -97q0 -78 27 -110.5t100 -34.5v-23q-109 -4 -152 35t-43 133q0 36 5 96t5 85q0 57 -17 82t-60 27v22q43 2 60 27t17 82q0 26 -5 81t-5 85 q0 92 43 130.5t152 34.5v-23z" unicode="{" glyph-name="braceleft"/>
<glyph horiz-adv-x="195" d="M77 790h42v-1015h-42v1015z" unicode="|" glyph-name="bar"/>
<glyph horiz-adv-x="292" d="M197 409q0 -57 17 -82t60 -27v-22q-43 -2 -60 -27t-17 -82q0 -25 5 -85t5 -96q0 -94 -43 -133t-152 -35v23q73 2 100 34.5t27 110.5q0 38 -5 97t-5 80q0 47 13 77t51 46v2q-38 16 -51 46t-13 77q0 22 5 76t5 86q0 76 -27 108t-100 34v23q109 4 152 -34.5t43 -130.5 q0 -30 -5 -85t-5 -81z" unicode="}" glyph-name="braceright"/>
<glyph horiz-adv-x="547" d="M184 235q-49 0 -65 -60l-24 5q6 46 30.5 70.5t61.5 24.5t92 -32t84 -32q50 0 65 64l24 -5q-6 -46 -31 -72.5t-61 -26.5q-37 0 -92 32t-84 32z" unicode="~" glyph-name="asciitilde"/>
<glyph horiz-adv-x="194" d="M112 458q22 0 37 -15t15 -37q0 -21 -15 -36t-37 -15t-37 15t-15 36q0 22 15 37t37 15zM122 241q2 -298 15 -463l-92 -42q2 262 49 505h28z" unicode="¡" glyph-name="exclamdown"/>
<glyph horiz-adv-x="604" d="M539 190h23l-6 -114q-31 -42 -88 -66.5t-129 -24.5q-26 0 -50 3l-19 -109l-40 4l19 114q-92 26 -140.5 99.5t-48.5 161.5q0 114 78 194t204 87l17 103l41 -5l-17 -98q87 -4 157 -36v-129h-23q-9 56 -46.5 87t-94.5 37l-80 -467q22 -6 47 -6q74 0 128.5 44.5t67.5 120.5z M145 278q0 -74 29 -138.5t84 -93.5l77 454q-89 -4 -139.5 -63t-50.5 -159z" unicode="¢" glyph-name="cent"/>
<glyph horiz-adv-x="505" d="M447 157h23l-8 -157h-396v23q48 24 69.5 57t21.5 82q0 41 -26 108h-92v31h80q-9 32 -9 64q0 86 54.5 133.5t145.5 47.5q76 0 141 -27v-133h-23q-12 124 -130 124q-110 0 -110 -122q0 -44 16 -87h149v-31h-138q14 -38 14 -77q0 -77 -52 -119v-3h167q95 0 103 86z" unicode="£" glyph-name="sterling"/>
<glyph horiz-adv-x="670" d="M543 496q67 -78 67 -181t-67 -181l67 -67l-26 -27l-68 68q-78 -68 -181 -68t-181 68l-67 -68l-26 27l67 67q-68 78 -68 181t68 181l-67 67l26 27l67 -67q78 67 181 67t181 -68l68 68l26 -27zM335 75q97 0 166 71t69 169t-69 169t-166 71t-166 -71t-69 -169t69 -169 t166 -71z" unicode="¤" glyph-name="currency"/>
<glyph horiz-adv-x="472" d="M468 502q-20 -2 -36.5 -18.5t-43.5 -58.5l-91 -142h136v-32h-155q-8 -16 -8 -48v-30h163v-32h-163v-41q0 -50 15.5 -62.5t69.5 -14.5v-23h-226v23q36 2 48 15t12 62v41h-155v32h155v30q0 31 -7 48h-148v32h131l-79 142q-27 49 -42.5 62t-42.5 15v23h198v-23 q-38 -2 -42.5 -15.5t21.5 -61.5l74 -133h2l87 133q47 72 -43 77v23h170v-23z" unicode="¥" glyph-name="yen"/>
<glyph horiz-adv-x="195" d="M77 790h42v-315h-42v315zM77 90h42v-315h-42v315z" unicode="¦" glyph-name="brokenbar"/>
<glyph horiz-adv-x="542" d="M430 79q48 -46 48 -116q0 -83 -61.5 -135.5t-154.5 -52.5q-31 0 -62.5 6.5t-63 20t-51 40t-19.5 61.5q0 45 18 76h23q4 -76 49.5 -122t116.5 -46q66 0 99 38t33 91q0 46 -32.5 78.5t-78.5 53.5t-92.5 43t-79 60.5t-32.5 93.5q0 79 62 126q-62 44 -62 114q0 75 59.5 123 t161.5 48q79 0 146 -27v-145h-23q-7 69 -39 102.5t-97 33.5q-68 0 -102 -33t-34 -79q0 -41 32.5 -69.5t79 -47.5t93 -41t79 -63t32.5 -101q0 -78 -48 -131zM155 295q0 -38 25 -67t56.5 -44t80.5 -37t76 -39q18 28 18 70q0 35 -12.5 62t-39.5 46.5t-49.5 31.5t-62 29 t-58.5 26q-34 -30 -34 -78z" unicode="§" glyph-name="section"/>
<glyph horiz-adv-x="815" d="M408 -15q-144 0 -246 102t-102 246q0 143 102 245t246 102q143 0 245 -102t102 -245q0 -144 -102 -246t-245 -102zM408 18q128 0 219.5 92.5t91.5 222.5q0 129 -91.5 221.5t-219.5 92.5q-129 0 -220.5 -92.5t-91.5 -221.5q0 -130 91.5 -222.5t220.5 -92.5zM412 135 q-96 0 -147 58t-51 136q0 85 59.5 143t154.5 58q69 0 127 -27v-91h-17q-7 44 -40 66.5t-80 22.5q-67 0 -105.5 -42t-38.5 -115t36.5 -126.5t104.5 -53.5q52 0 90.5 31.5t48.5 85.5h16l-4 -81q-48 -65 -154 -65z" unicode="©" glyph-name="copyright"/>
<glyph horiz-adv-x="289" d="M287 416l8 -10q-25 -45 -65 -45q-45 0 -53 41h-2q-27 -41 -75 -41q-27 0 -42.5 15.5t-15.5 39.5q0 33 31 55.5t102 40.5v33q0 52 -42 52q-51 0 -65 -68h-12v69q44 23 99 23q84 0 84 -67v-128q0 -27 17 -27q14 0 31 17zM175 421v73q-75 -20 -75 -64q0 -32 30 -32 q24 0 45 23z" unicode="ª" glyph-name="ordfeminine"/>
<glyph horiz-adv-x="358" d="M105 259q0 -12 10 -24l106 -142l-17 -16l-180 171v22l180 171l17 -16l-106 -142q-10 -14 -10 -24zM261 259q0 -10 8 -24l66 -103l-16 -16l-124 132v22l124 132l16 -16l-66 -103q-8 -14 -8 -24z" unicode="«" glyph-name="guillemotleft"/>
<glyph horiz-adv-x="547" d="M476 350v-182h-41v141h-363v41h404z" unicode="¬" glyph-name="logicalnot"/>
<glyph horiz-adv-x="787" d="M394 -15q-144 0 -246 102t-102 246q0 143 102 245t246 102q143 0 245 -102t102 -245q0 -144 -102 -246t-245 -102zM394 18q128 0 219.5 92.5t91.5 222.5q0 129 -91.5 221.5t-219.5 92.5q-129 0 -220.5 -92.5t-91.5 -221.5q0 -130 91.5 -222.5t220.5 -92.5zM566 142 q-39 0 -60.5 14t-42.5 42l-88 116q-13 17 -27 18v22q61 -6 91 16.5t30 61.5q0 65 -81 65q-30 0 -42 -9.5t-12 -39.5v-231q0 -35 11 -44t50 -11v-16h-161v16q25 2 34 11t9 44v231q0 35 -11 44t-50 11v16h61q33 0 69.5 2t46.5 2q137 0 137 -88q0 -77 -100 -98v-1l89 -117 q28 -37 43 -47t40 -10v-16q-13 -4 -36 -4z" unicode="®" glyph-name="registered"/>
<glyph horiz-adv-x="320" d="M160 449q-49 0 -81.5 33t-32.5 81q0 49 32.5 82t81.5 33q48 0 81 -33t33 -82q0 -48 -33 -81t-81 -33zM160 491q30 0 49.5 21t19.5 51t-19.5 51.5t-49.5 21.5t-49.5 -21t-19.5 -52q0 -30 19.5 -51t49.5 -21z" unicode="°" glyph-name="degree"/>
<glyph horiz-adv-x="547" d="M294 280h158v-41h-158v-159h-41v159h-158v41h158v158h41v-158zM95 -5v41h357v-41h-357z" unicode="±" glyph-name="plusminus"/>
<glyph horiz-adv-x="322" d="M254 472h21l-5 -102h-252v13q8 3 31 20q142 114 142 220q0 60 -58 60q-53 0 -94 -59l-11 9q45 100 131 100q46 0 72.5 -24t26.5 -67q0 -101 -148 -215v-1h87q29 0 42 11t15 35z" unicode="²" glyph-name="uni00B2"/>
<glyph horiz-adv-x="312" d="M181 566v-2q37 0 67 -23.5t30 -65.5q0 -49 -40.5 -81.5t-104.5 -32.5q-63 0 -100 28q6 29 24 48q36 -53 82 -53q35 0 53.5 23.5t18.5 57.5q0 42 -32 59t-87 2v19q103 37 103 94q0 45 -51 45q-47 0 -87 -44l-10 9q49 83 123 83q39 0 63 -19.5t24 -54.5q0 -60 -76 -92z" unicode="³" glyph-name="uni00B3"/>
<glyph horiz-adv-x="566" d="M541 77l10 -23l-161 -75l-6 6q7 28 7 92h-2q-89 -92 -174 -92q-53 0 -81 25q13 -108 53 -205q-43 -30 -87 -30l3 334l1 221q0 26 -7.5 35.5t-23.5 9.5q-19 0 -44 -10l-10 23l162 75l6 -6q-4 -22 -4 -126v-206q0 -37 15 -56t52 -19q67 0 138 57v223q0 26 -7.5 35.5 t-23.5 9.5q-23 0 -53 -14l-10 23l172 79l6 -6q-4 -22 -4 -126v-219q0 -26 7 -35t23 -9q22 0 43 9z" unicode="µ" glyph-name="uni00B5"/>
<glyph horiz-adv-x="571" d="M424 525h95v-23q-61 -2 -78 -14.5t-17 -62.5v-438q0 -103 -49.5 -157.5t-119.5 -54.5q-38 0 -65 15q0 20 19 40t40 20q12 -34 35 -34q33 0 44 41t11 143v169q-154 -14 -229 40.5t-75 140.5q0 75 54.5 127.5t157.5 52.5q12 0 74 -2.5t103 -2.5z" unicode="¶" glyph-name="paragraph"/>
<glyph horiz-adv-x="194" d="M97 314q-22 0 -37 15t-15 37q0 21 15 36t37 15t37 -15t15 -36q0 -22 -15 -37t-37 -15z" unicode="·" glyph-name="periodcentered"/>
<glyph horiz-adv-x="285" d="M169 436q0 -30 9.5 -37t47.5 -8v-21h-179v21q37 1 46.5 8t9.5 37v228l-50 -39l-16 21l109 87h26q-4 -19 -4 -42z" unicode="¹" glyph-name="uni00B9"/>
<glyph horiz-adv-x="312" d="M160 621q54 0 89 -34.5t35 -91.5q0 -61 -40 -97.5t-92 -36.5q-53 0 -88.5 35.5t-35.5 91.5q0 62 39.5 97.5t92.5 35.5zM162 384q58 0 58 94q0 51 -19.5 86t-49.5 35q-59 0 -59 -94q0 -52 19 -86.5t51 -34.5z" unicode="º" glyph-name="ordmasculine"/>
<glyph horiz-adv-x="358" d="M253 259q0 10 -10 24l-106 142l17 16l180 -171v-22l-180 -171l-17 16l106 142q10 12 10 24zM97 259q0 10 -8 24l-66 103l16 16l124 -132v-22l-124 -132l-16 16l66 103q8 14 8 24z" unicode="»" glyph-name="guillemotright"/>
<glyph horiz-adv-x="684" d="M571 691l31 -16l-447 -702l-31 16zM47 331q37 1 46.5 8t9.5 37v228l-50 -39l-16 21l109 87h26q-4 -19 -4 -42l1 -255q0 -30 9.5 -37t47.5 -8v-21h-179v21zM597 130h41v-52h-26q-13 0 -15 -19q0 -39 1 -59h-64l3 78h-177v13q14 12 26 30l166 214q13 17 19 28h27zM535 274 l-111 -144h113v144h-2z" unicode="¼" glyph-name="onequarter"/>
<glyph horiz-adv-x="743" d="M571 691l31 -16l-447 -702l-31 16zM169 376q0 -30 9.5 -37t47.5 -8v-21h-179v21q37 1 46.5 8t9.5 37v228l-50 -39l-16 21l109 87h26q-4 -19 -4 -42zM675 102h21l-5 -102h-252v13q8 3 31 20q142 114 142 220q0 60 -58 60q-53 0 -94 -59l-11 9q45 100 131 100 q46 0 72.5 -24t26.5 -67q0 -101 -148 -215v-1h87q29 0 42 11t15 35z" unicode="½" glyph-name="onehalf"/>
<glyph horiz-adv-x="691" d="M578 691l31 -16l-447 -702l-31 16zM139 324q35 0 53.5 23.5t18.5 57.5q0 42 -32 59t-87 2v19q103 37 103 94q0 45 -51 45q-47 0 -87 -44l-10 9q49 83 123 83q39 0 63 -19.5t24 -54.5q0 -60 -76 -92v-2q37 0 67 -23.5t30 -65.5q0 -49 -40.5 -81.5t-104.5 -32.5 q-63 0 -100 28q6 29 24 48q36 -53 82 -53zM604 130h41v-52h-26q-13 0 -15 -19q0 -39 1 -59h-64l3 78h-177v13q14 12 26 30l166 214q13 17 19 28h27zM542 274l-111 -144h113v144h-2z" unicode="¾" glyph-name="threequarters"/>
<glyph horiz-adv-x="351" d="M193 459q22 0 37 -15t15 -37q0 -21 -15 -36t-37 -15t-37 15t-15 36q0 22 15 37t37 15zM132 250q63 5 102.5 -19.5t39.5 -72.5q0 -36 -25 -66.5t-83 -75.5q-45 -36 -63 -61.5t-18 -65.5q0 -45 28.5 -68.5t68.5 -23.5q42 0 72.5 28t36.5 84h23v-118q-50 -27 -126 -27 q-71 0 -119.5 38t-48.5 114q0 44 21 76.5t74 77.5q9 8 23.5 20t21 17.5t16 14t14 13.5t9.5 12t6.5 13t1.5 12q0 27 -23 40.5t-52 11.5v26z" unicode="¿" glyph-name="questiondown"/>
<glyph horiz-adv-x="635" d="M259 870q47 -86 108 -127l-11 -19q-110 40 -171 117q28 31 74 29zM543 100q17 -50 33 -62.5t58 -14.5v-23h-239v23q53 2 63.5 14.5t-4.5 62.5l-57 172q-8 -8 -36 -8h-131q-23 0 -33.5 -5.5t-18.5 -26.5l-47 -132q-13 -40 2 -57.5t76 -19.5v-23h-207v23q31 2 49.5 20 t33.5 57l177 486q29 77 35 102h49q9 -34 34 -102zM363 300q14 0 18 4t0 15l-82 243h-2l-96 -265q6 3 28 3h134z" unicode="À" glyph-name="Agrave"/>
<glyph horiz-adv-x="635" d="M373 870q47 2 75 -29q-61 -77 -171 -117l-11 19q63 42 107 127zM543 100q17 -50 33 -62.5t58 -14.5v-23h-239v23q53 2 63.5 14.5t-4.5 62.5l-57 172q-8 -8 -36 -8h-131q-23 0 -33.5 -5.5t-18.5 -26.5l-47 -132q-13 -40 2 -57.5t76 -19.5v-23h-207v23q31 2 49.5 20 t33.5 57l177 486q29 77 35 102h49q9 -34 34 -102zM363 300q14 0 18 4t0 15l-82 243h-2l-96 -265q6 3 28 3h134z" unicode="Á" glyph-name="Aacute"/>
<glyph horiz-adv-x="635" d="M425 724q-55 22 -113 69q-61 -49 -105 -69l-19 9q58 57 127 148h2q65 -86 127 -148zM543 100q17 -50 33 -62.5t58 -14.5v-23h-239v23q53 2 63.5 14.5t-4.5 62.5l-57 172q-8 -8 -36 -8h-131q-23 0 -33.5 -5.5t-18.5 -26.5l-47 -132q-13 -40 2 -57.5t76 -19.5v-23h-207v23 q31 2 49.5 20t33.5 57l177 486q29 77 35 102h49q9 -34 34 -102zM363 300q14 0 18 4t0 15l-82 243h-2l-96 -265q6 3 28 3h134z" unicode="Â" glyph-name="Acircumflex"/>
<glyph horiz-adv-x="635" d="M240 791q-40 0 -63 -58l-22 5q28 113 103 113q31 0 78 -29t67 -29q40 0 63 58l23 -5q-16 -61 -41.5 -87t-62.5 -26q-31 0 -78 29t-67 29zM543 100q17 -50 33 -62.5t58 -14.5v-23h-239v23q53 2 63.5 14.5t-4.5 62.5l-57 172q-8 -8 -36 -8h-131q-23 0 -33.5 -5.5 t-18.5 -26.5l-47 -132q-13 -40 2 -57.5t76 -19.5v-23h-207v23q31 2 49.5 20t33.5 57l177 486q29 77 35 102h49q9 -34 34 -102zM363 300q14 0 18 4t0 15l-82 243h-2l-96 -265q6 3 28 3h134z" unicode="Ã" glyph-name="Atilde"/>
<glyph horiz-adv-x="635" d="M213 746q-20 0 -34.5 14.5t-14.5 34.5t14.5 34.5t34.5 14.5q21 0 35.5 -14.5t14.5 -34.5t-14.5 -34.5t-35.5 -14.5zM419 746q-20 0 -34.5 14.5t-14.5 34.5t14.5 34.5t34.5 14.5q21 0 35.5 -14.5t14.5 -34.5t-14.5 -34.5t-35.5 -14.5zM543 100q17 -50 33 -62.5t58 -14.5 v-23h-239v23q53 2 63.5 14.5t-4.5 62.5l-57 172q-8 -8 -36 -8h-131q-23 0 -33.5 -5.5t-18.5 -26.5l-47 -132q-13 -40 2 -57.5t76 -19.5v-23h-207v23q31 2 49.5 20t33.5 57l177 486q29 77 35 102h49q9 -34 34 -102zM363 300q14 0 18 4t0 15l-82 243h-2l-96 -265q6 3 28 3h134 z" unicode="Ä" glyph-name="Adieresis"/>
<glyph horiz-adv-x="635" d="M543 100q17 -50 33 -62.5t58 -14.5v-23h-239v23q53 2 63.5 14.5t-4.5 62.5l-57 172q-8 -8 -36 -8h-131q-23 0 -33.5 -5.5t-18.5 -26.5l-47 -132q-13 -40 2 -57.5t76 -19.5v-23h-207v23q31 2 49.5 20t33.5 57l177 486q10 26 28 76q-39 5 -64.5 31.5t-25.5 63.5 q0 42 31 71.5t78 29.5q45 0 76 -27.5t31 -68.5q0 -31 -18 -56t-47 -36q9 -31 29 -84zM257 761q0 -32 15.5 -48.5t36.5 -16.5t35.5 16t14.5 47t-15.5 48t-36.5 17t-35.5 -16.5t-14.5 -46.5zM363 300q14 0 18 4t0 15l-82 243h-2l-96 -265q6 3 28 3h134z" unicode="Å" glyph-name="Aring"/>
<glyph horiz-adv-x="880" d="M822 156h23l-8 -156h-491v23q43 2 56.5 15t13.5 62v172q-9 -8 -37 -8h-99q-38 0 -50 -21l-82 -143q-24 -37 -10 -56t76 -21v-23h-212v23q31 2 51 19.5t44 57.5l304 519q-20 21 -93 23v23h461v-140h-23q-3 54 -25.5 79t-88.5 25h-87q-24 0 -34 -12t-10 -52v-188 q14 10 47 10h113q59 0 62 66h23v-170h-23q-1 40 -14 54t-48 14h-111q-28 0 -38.5 -9t-10.5 -35v-207q0 -42 14.5 -53t61.5 -11h111q123 0 134 120zM416 329v234h-2l-152 -266q7 3 28 3h100q15 0 20.5 5.5t5.5 23.5z" unicode="Æ" glyph-name="AE"/>
<glyph horiz-adv-x="704" d="M639 220h23l-6 -117q-91 -112 -234 -118l-10 -43q41 -9 65 -34t24 -59q0 -35 -24.5 -59.5t-64.5 -24.5q-48 0 -78 35l9 14q41 -18 67.5 -11t26.5 33q0 41 -68 53l22 96q-143 5 -237 100t-94 242q0 159 109 256t267 97q54 0 111.5 -11t91.5 -26v-158h-23q-6 81 -61 118 t-132 37q-115 0 -193 -76.5t-78 -220.5q0 -142 74 -230t181 -88q89 0 152 59.5t80 135.5z" unicode="Ç" glyph-name="Ccedilla"/>
<glyph horiz-adv-x="628" d="M273 870q47 -86 108 -127l-11 -19q-110 40 -171 117q28 31 74 29zM66 0v23q43 2 56.5 15t13.5 62v465q0 50 -17 62.5t-78 14.5v23h476v-140h-23q-3 53 -26 78.5t-88 25.5h-115q-24 0 -34 -12t-10 -52v-188q14 10 47 10h141q59 0 62 66h23v-170h-23q-1 40 -14 54t-48 14 h-139q-28 0 -38.5 -9t-10.5 -35v-207q0 -42 14.5 -53t61.5 -11h139q123 0 134 120h23l-8 -156h-519z" unicode="È" glyph-name="Egrave"/>
<glyph horiz-adv-x="628" d="M387 870q47 2 75 -29q-61 -77 -171 -117l-11 19q63 42 107 127zM66 0v23q43 2 56.5 15t13.5 62v465q0 50 -17 62.5t-78 14.5v23h476v-140h-23q-3 53 -26 78.5t-88 25.5h-115q-24 0 -34 -12t-10 -52v-188q14 10 47 10h141q59 0 62 66h23v-170h-23q-1 40 -14 54t-48 14 h-139q-28 0 -38.5 -9t-10.5 -35v-207q0 -42 14.5 -53t61.5 -11h139q123 0 134 120h23l-8 -156h-519z" unicode="É" glyph-name="Eacute"/>
<glyph horiz-adv-x="628" d="M439 724q-55 22 -113 69q-61 -49 -105 -69l-19 9q58 57 127 148h2q65 -86 127 -148zM66 0v23q43 2 56.5 15t13.5 62v465q0 50 -17 62.5t-78 14.5v23h476v-140h-23q-3 53 -26 78.5t-88 25.5h-115q-24 0 -34 -12t-10 -52v-188q14 10 47 10h141q59 0 62 66h23v-170h-23 q-1 40 -14 54t-48 14h-139q-28 0 -38.5 -9t-10.5 -35v-207q0 -42 14.5 -53t61.5 -11h139q123 0 134 120h23l-8 -156h-519z" unicode="Ê" glyph-name="Ecircumflex"/>
<glyph horiz-adv-x="628" d="M227 746q-20 0 -34.5 14.5t-14.5 34.5t14.5 34.5t34.5 14.5q21 0 35.5 -14.5t14.5 -34.5t-14.5 -34.5t-35.5 -14.5zM433 746q-20 0 -34.5 14.5t-14.5 34.5t14.5 34.5t34.5 14.5q21 0 35.5 -14.5t14.5 -34.5t-14.5 -34.5t-35.5 -14.5zM66 0v23q43 2 56.5 15t13.5 62v465 q0 50 -17 62.5t-78 14.5v23h476v-140h-23q-3 53 -26 78.5t-88 25.5h-115q-24 0 -34 -12t-10 -52v-188q14 10 47 10h141q59 0 62 66h23v-170h-23q-1 40 -14 54t-48 14h-139q-28 0 -38.5 -9t-10.5 -35v-207q0 -42 14.5 -53t61.5 -11h139q123 0 134 120h23l-8 -156h-519z" unicode="Ë" glyph-name="Edieresis"/>
<glyph horiz-adv-x="375" d="M131 870q47 -86 108 -127l-11 -19q-110 40 -171 117q28 31 74 29zM75 0v23q43 2 56.5 15t13.5 62v465q0 50 -17 62.5t-78 14.5v23h250v-23q-43 -2 -56.5 -15t-13.5 -62v-465q0 -50 17 -62.5t78 -14.5v-23h-250z" unicode="Ì" glyph-name="Igrave"/>
<glyph horiz-adv-x="375" d="M245 870q47 2 75 -29q-61 -77 -171 -117l-11 19q63 42 107 127zM75 0v23q43 2 56.5 15t13.5 62v465q0 50 -17 62.5t-78 14.5v23h250v-23q-43 -2 -56.5 -15t-13.5 -62v-465q0 -50 17 -62.5t78 -14.5v-23h-250z" unicode="Í" glyph-name="Iacute"/>
<glyph horiz-adv-x="375" d="M297 724q-55 22 -113 69q-61 -49 -105 -69l-19 9q58 57 127 148h2q65 -86 127 -148zM75 0v23q43 2 56.5 15t13.5 62v465q0 50 -17 62.5t-78 14.5v23h250v-23q-43 -2 -56.5 -15t-13.5 -62v-465q0 -50 17 -62.5t78 -14.5v-23h-250z" unicode="Î" glyph-name="Icircumflex"/>
<glyph horiz-adv-x="375" d="M85 746q-20 0 -34.5 14.5t-14.5 34.5t14.5 34.5t34.5 14.5q21 0 35.5 -14.5t14.5 -34.5t-14.5 -34.5t-35.5 -14.5zM291 746q-20 0 -34.5 14.5t-14.5 34.5t14.5 34.5t34.5 14.5q21 0 35.5 -14.5t14.5 -34.5t-14.5 -34.5t-35.5 -14.5zM75 0v23q43 2 56.5 15t13.5 62v465 q0 50 -17 62.5t-78 14.5v23h250v-23q-43 -2 -56.5 -15t-13.5 -62v-465q0 -50 17 -62.5t78 -14.5v-23h-250z" unicode="Ï" glyph-name="Idieresis"/>
<glyph horiz-adv-x="765" d="M346 670q166 0 262.5 -81.5t96.5 -235.5q0 -106 -52 -188t-134 -123.5t-176 -41.5h-277v23q43 2 56.5 15t13.5 62v231h-99v36h99v198q0 50 -17 62.5t-78 14.5v23h95q50 0 120.5 2.5t89.5 2.5zM313 36q149 0 224.5 79.5t75.5 222.5q0 296 -295 296q-58 0 -77.5 -12.5 t-19.5 -56.5v-198h160v-36h-160v-231q0 -41 18.5 -52.5t73.5 -11.5z" unicode="Ð" glyph-name="Eth"/>
<glyph horiz-adv-x="788" d="M327 791q-40 0 -63 -58l-22 5q28 113 103 113q31 0 78 -29t67 -29q40 0 63 58l23 -5q-16 -61 -41.5 -87t-62.5 -26q-31 0 -78 29t-67 29zM632 -8q-35 52 -82 104l-365 413h-2v-409q0 -39 20 -57t76 -20v-23h-211v23q39 2 54.5 20.5t15.5 56.5v465q0 39 -22.5 57t-72.5 20 v23h136q32 -54 71 -96l369 -413h2v409q0 39 -20 57t-76 20v23h211v-23q-39 -2 -54.5 -20.5t-15.5 -56.5v-465q0 -70 2 -108h-36z" unicode="Ñ" glyph-name="Ntilde"/>
<glyph d="M339 870q47 -86 108 -127l-11 -19q-110 40 -171 117q28 31 74 29zM395 680q139 0 237 -96t98 -250t-98 -251.5t-238 -97.5q-139 0 -236.5 96t-97.5 250t98 251.5t237 97.5zM409 25q95 0 162 77t67 213q0 149 -77 237t-180 88q-96 0 -162.5 -77t-66.5 -213q0 -149 77 -237 t180 -88z" unicode="Ò" glyph-name="Ograve"/>
<glyph d="M453 870q47 2 75 -29q-61 -77 -171 -117l-11 19q63 42 107 127zM395 680q139 0 237 -96t98 -250t-98 -251.5t-238 -97.5q-139 0 -236.5 96t-97.5 250t98 251.5t237 97.5zM409 25q95 0 162 77t67 213q0 149 -77 237t-180 88q-96 0 -162.5 -77t-66.5 -213q0 -149 77 -237 t180 -88z" unicode="Ó" glyph-name="Oacute"/>
<glyph d="M505 724q-55 22 -113 69q-61 -49 -105 -69l-19 9q58 57 127 148h2q65 -86 127 -148zM395 680q139 0 237 -96t98 -250t-98 -251.5t-238 -97.5q-139 0 -236.5 96t-97.5 250t98 251.5t237 97.5zM409 25q95 0 162 77t67 213q0 149 -77 237t-180 88q-96 0 -162.5 -77 t-66.5 -213q0 -149 77 -237t180 -88z" unicode="Ô" glyph-name="Ocircumflex"/>
<glyph d="M320 791q-40 0 -63 -58l-22 5q28 113 103 113q31 0 78 -29t67 -29q40 0 63 58l23 -5q-16 -61 -41.5 -87t-62.5 -26q-31 0 -78 29t-67 29zM395 680q139 0 237 -96t98 -250t-98 -251.5t-238 -97.5q-139 0 -236.5 96t-97.5 250t98 251.5t237 97.5zM409 25q95 0 162 77 t67 213q0 149 -77 237t-180 88q-96 0 -162.5 -77t-66.5 -213q0 -149 77 -237t180 -88z" unicode="Õ" glyph-name="Otilde"/>
<glyph d="M293 746q-20 0 -34.5 14.5t-14.5 34.5t14.5 34.5t34.5 14.5q21 0 35.5 -14.5t14.5 -34.5t-14.5 -34.5t-35.5 -14.5zM499 746q-20 0 -34.5 14.5t-14.5 34.5t14.5 34.5t34.5 14.5q21 0 35.5 -14.5t14.5 -34.5t-14.5 -34.5t-35.5 -14.5zM395 680q139 0 237 -96t98 -250 t-98 -251.5t-238 -97.5q-139 0 -236.5 96t-97.5 250t98 251.5t237 97.5zM409 25q95 0 162 77t67 213q0 149 -77 237t-180 88q-96 0 -162.5 -77t-66.5 -213q0 -149 77 -237t180 -88z" unicode="Ö" glyph-name="Odieresis"/>
<glyph horiz-adv-x="547" d="M449 372l-147 -146l147 -147l-29 -29l-146 147l-147 -147l-29 29l147 147l-147 146l29 29l147 -147l146 147z" unicode="×" glyph-name="multiply"/>
<glyph d="M585 623q67 -46 106 -120.5t39 -168.5q0 -154 -98 -251.5t-238 -97.5q-117 0 -206 69l-60 -85l-28 18l62 89q-102 100 -102 255q0 154 98 251.5t237 97.5q87 0 162 -40l39 56l28 -18zM152 350q0 -122 56 -209l314 449q-64 50 -141 50q-96 0 -162.5 -77t-66.5 -213z M409 25q95 0 162 77t67 213q0 159 -91 253l-318 -455q74 -88 180 -88z" unicode="Ø" glyph-name="Oslash"/>
<glyph horiz-adv-x="774" d="M325 870q47 -86 108 -127l-11 -19q-110 40 -171 117q28 31 74 29zM301 -15q-85 0 -129 46.5t-44 130.5v403q0 50 -15.5 62.5t-70.5 14.5v23h241v-23q-43 -2 -56.5 -15t-13.5 -62v-380q0 -135 113 -135q95 0 164 80t69 192v243q0 50 -16.5 62.5t-77.5 14.5v23h244v-23 q-43 -2 -56.5 -15t-13.5 -62v-466q0 -49 14 -61.5t61 -14.5v-23h-142q-12 32 -12 100v85h-2q-83 -200 -257 -200z" unicode="Ù" glyph-name="Ugrave"/>
<glyph horiz-adv-x="774" d="M439 870q47 2 75 -29q-61 -77 -171 -117l-11 19q63 42 107 127zM301 -15q-85 0 -129 46.5t-44 130.5v403q0 50 -15.5 62.5t-70.5 14.5v23h241v-23q-43 -2 -56.5 -15t-13.5 -62v-380q0 -135 113 -135q95 0 164 80t69 192v243q0 50 -16.5 62.5t-77.5 14.5v23h244v-23 q-43 -2 -56.5 -15t-13.5 -62v-466q0 -49 14 -61.5t61 -14.5v-23h-142q-12 32 -12 100v85h-2q-83 -200 -257 -200z" unicode="Ú" glyph-name="Uacute"/>
<glyph horiz-adv-x="774" d="M491 724q-55 22 -113 69q-61 -49 -105 -69l-19 9q58 57 127 148h2q65 -86 127 -148zM301 -15q-85 0 -129 46.5t-44 130.5v403q0 50 -15.5 62.5t-70.5 14.5v23h241v-23q-43 -2 -56.5 -15t-13.5 -62v-380q0 -135 113 -135q95 0 164 80t69 192v243q0 50 -16.5 62.5 t-77.5 14.5v23h244v-23q-43 -2 -56.5 -15t-13.5 -62v-466q0 -49 14 -61.5t61 -14.5v-23h-142q-12 32 -12 100v85h-2q-83 -200 -257 -200z" unicode="Û" glyph-name="Ucircumflex"/>
<glyph horiz-adv-x="774" d="M279 746q-20 0 -34.5 14.5t-14.5 34.5t14.5 34.5t34.5 14.5q21 0 35.5 -14.5t14.5 -34.5t-14.5 -34.5t-35.5 -14.5zM485 746q-20 0 -34.5 14.5t-14.5 34.5t14.5 34.5t34.5 14.5q21 0 35.5 -14.5t14.5 -34.5t-14.5 -34.5t-35.5 -14.5zM301 -15q-85 0 -129 46.5t-44 130.5 v403q0 50 -15.5 62.5t-70.5 14.5v23h241v-23q-43 -2 -56.5 -15t-13.5 -62v-380q0 -135 113 -135q95 0 164 80t69 192v243q0 50 -16.5 62.5t-77.5 14.5v23h244v-23q-43 -2 -56.5 -15t-13.5 -62v-466q0 -49 14 -61.5t61 -14.5v-23h-142q-12 32 -12 100v85h-2 q-83 -200 -257 -200z" unicode="Ü" glyph-name="Udieresis"/>
<glyph horiz-adv-x="553" d="M356 870q47 2 75 -29q-61 -77 -171 -117l-11 19q63 42 107 127zM363 665h186v-23q-22 -2 -41.5 -19.5t-43.5 -57.5l-127 -214q-19 -31 -19 -68v-183q0 -50 16.5 -62.5t77.5 -14.5v-23h-249v23q43 2 56.5 15t13.5 62v183q0 37 -17 68l-120 214q-28 49 -44.5 62t-50.5 15 v23h223v-23q-45 -2 -51 -15.5t20 -61.5l106 -193h2l114 193q22 40 9 57.5t-61 19.5v23z" unicode="Ý" glyph-name="Yacute"/>
<glyph horiz-adv-x="578" d="M66 0v23q43 2 56.5 15t13.5 62v465q0 50 -17 62.5t-78 14.5v23h250v-23q-43 -2 -56.5 -15t-13.5 -62v-50q63 6 99 6q223 0 223 -161q0 -92 -74.5 -148t-228.5 -42v30q210 -18 210 152q0 76 -42 104.5t-117 28.5q-38 0 -54 -13t-16 -54v-318q0 -50 16.5 -62.5t77.5 -14.5 v-23h-249z" unicode="Þ" glyph-name="Thorn"/>
<glyph horiz-adv-x="593" d="M376 432q0 -29 19.5 -57.5t47 -53t54.5 -50.5t46.5 -63t19.5 -79q0 -69 -46 -106.5t-115 -37.5q-55 0 -92 24t-37 66q0 32 17 69h23q5 -62 30.5 -93.5t67.5 -31.5q39 0 59.5 23.5t20.5 58.5q0 32 -19 62t-46 54.5t-54 50t-46 60t-19 72.5q0 39 21 72.5t45.5 54t45.5 51.5 t21 66q0 41 -26.5 70.5t-72.5 29.5q-69 0 -112 -66.5t-43 -188.5v-388q0 -50 12 -63t48 -15v-23h-200v23q36 2 48 15t12 63v298h-67v41h67v52q0 132 81.5 216t187.5 84q69 0 107 -37.5t38 -89.5q0 -31 -15 -58t-36 -46.5t-42 -38t-36 -41.5t-15 -49z" unicode="ß" glyph-name="germandbls"/>
<glyph horiz-adv-x="480" d="M261 538q-46 29 -88 75.5t-64 91.5q26 31 74 29q21 -105 89 -177zM472 85l16 -16q-46 -79 -110 -79q-66 0 -81 67h-2q-55 -72 -137 -72q-48 0 -77 24.5t-29 70.5q0 58 55.5 99t187.5 74v65q0 95 -84 95q-91 0 -113 -121h-23v125q79 38 162 38q77 0 107.5 -30t30.5 -86 v-242q0 -53 33 -53q29 0 64 41zM295 88v134q-96 -24 -128.5 -55.5t-32.5 -66.5q0 -28 17 -42t44 -14q48 0 100 44z" unicode="à" glyph-name="agrave"/>
<glyph horiz-adv-x="480" d="M373 705q-22 -45 -64 -91.5t-88 -75.5l-11 19q68 72 89 177q48 2 74 -29zM472 85l16 -16q-46 -79 -110 -79q-66 0 -81 67h-2q-55 -72 -137 -72q-48 0 -77 24.5t-29 70.5q0 58 55.5 99t187.5 74v65q0 95 -84 95q-91 0 -113 -121h-23v125q79 38 162 38q77 0 107.5 -30 t30.5 -86v-242q0 -53 33 -53q29 0 64 41zM295 88v134q-96 -24 -128.5 -55.5t-32.5 -66.5q0 -28 17 -42t44 -14q48 0 100 44z" unicode="á" glyph-name="aacute"/>
<glyph horiz-adv-x="480" d="M237 627q-60 -75 -104 -109l-19 9q72 91 126 207h2q54 -116 126 -207l-19 -9q-60 41 -112 109zM472 85l16 -16q-46 -79 -110 -79q-66 0 -81 67h-2q-55 -72 -137 -72q-48 0 -77 24.5t-29 70.5q0 58 55.5 99t187.5 74v65q0 95 -84 95q-91 0 -113 -121h-23v125q79 38 162 38 q77 0 107.5 -30t30.5 -86v-242q0 -53 33 -53q29 0 64 41zM295 88v134q-96 -24 -128.5 -55.5t-32.5 -66.5q0 -28 17 -42t44 -14q48 0 100 44z" unicode="â" glyph-name="acircumflex"/>
<glyph horiz-adv-x="480" d="M172 600q-22 0 -35 -14t-20 -45l-23 5q12 113 87 113q31 0 73 -29.5t61 -29.5q22 0 35 14t20 45l23 -5q-12 -113 -87 -113q-32 0 -73 29.5t-61 29.5zM472 85l16 -16q-46 -79 -110 -79q-66 0 -81 67h-2q-55 -72 -137 -72q-48 0 -77 24.5t-29 70.5q0 58 55.5 99t187.5 74 v65q0 95 -84 95q-91 0 -113 -121h-23v125q79 38 162 38q77 0 107.5 -30t30.5 -86v-242q0 -53 33 -53q29 0 64 41zM295 88v134q-96 -24 -128.5 -55.5t-32.5 -66.5q0 -28 17 -42t44 -14q48 0 100 44z" unicode="ã" glyph-name="atilde"/>
<glyph horiz-adv-x="480" d="M148 561q-21 0 -35 14.5t-14 34.5t14 34t35 14q20 0 34.5 -14t14.5 -34t-14.5 -34.5t-34.5 -14.5zM336 561q-21 0 -35 14.5t-14 34.5t14 34t35 14q20 0 34.5 -14t14.5 -34t-14.5 -34.5t-34.5 -14.5zM472 85l16 -16q-46 -79 -110 -79q-66 0 -81 67h-2q-55 -72 -137 -72 q-48 0 -77 24.5t-29 70.5q0 58 55.5 99t187.5 74v65q0 95 -84 95q-91 0 -113 -121h-23v125q79 38 162 38q77 0 107.5 -30t30.5 -86v-242q0 -53 33 -53q29 0 64 41zM295 88v134q-96 -24 -128.5 -55.5t-32.5 -66.5q0 -28 17 -42t44 -14q48 0 100 44z" unicode="ä" glyph-name="adieresis"/>
<glyph horiz-adv-x="480" d="M242 517q-46 0 -75 28t-29 70t29.5 70.5t74.5 28.5t74.5 -28.5t29.5 -69.5t-30 -70t-74 -29zM239 679q-20 0 -34 -17t-14 -45q0 -32 16 -49t37 -17q20 0 34.5 17t14.5 45q0 33 -16.5 49.5t-37.5 16.5zM472 85l16 -16q-46 -79 -110 -79q-66 0 -81 67h-2q-55 -72 -137 -72 q-48 0 -77 24.5t-29 70.5q0 58 55.5 99t187.5 74v65q0 95 -84 95q-91 0 -113 -121h-23v125q79 38 162 38q77 0 107.5 -30t30.5 -86v-242q0 -53 33 -53q29 0 64 41zM295 88v134q-96 -24 -128.5 -55.5t-32.5 -66.5q0 -28 17 -42t44 -14q48 0 100 44z" unicode="å" glyph-name="aring"/>
<glyph horiz-adv-x="707" d="M660 109l16 -16q-64 -108 -182 -108q-52 0 -96.5 24t-70.5 70q-69 -94 -167 -94q-49 0 -78.5 25t-29.5 69q0 59 54.5 102.5t189.5 73.5v63q0 100 -84 100q-91 0 -113 -121h-23v120q79 38 162 38q100 0 123 -65q62 65 149 65q69 0 115 -41t46 -117l-299 -59 q3 -87 44.5 -137t108.5 -50q72 0 135 58zM490 418q-55 0 -84 -41t-33 -106l209 40q-12 107 -92 107zM196 44q63 0 116 65q-16 45 -16 98v2v14q-52 -12 -87 -28t-49.5 -33.5t-19.5 -31t-5 -30.5q0 -28 17 -42t44 -14z" unicode="æ" glyph-name="ae"/>
<glyph horiz-adv-x="471" d="M434 93q-55 -91 -154 -106l-10 -45q41 -9 65 -34t24 -59q0 -35 -24.5 -59.5t-64.5 -24.5q-48 0 -78 35l9 14q41 -18 67.5 -11t26.5 33q0 41 -68 53l22 96q-84 0 -143.5 58.5t-59.5 163.5q0 114 70 181t169 67q79 0 133 -36v-131h-23q-8 70 -44.5 100t-84.5 30 q-64 0 -101 -48.5t-37 -124.5q0 -87 44.5 -140.5t113.5 -53.5q71 0 132 58z" unicode="ç" glyph-name="ccedilla"/>
<glyph horiz-adv-x="462" d="M266 538q-46 29 -88 75.5t-64 91.5q26 31 74 29q21 -105 89 -177zM415 109l16 -16q-64 -108 -182 -108q-84 0 -143.5 57t-59.5 163q0 111 63.5 180.5t155.5 69.5q69 0 115 -41t46 -117l-300 -39v-11q0 -91 42 -143.5t112 -52.5q72 0 135 58zM244 418q-50 0 -78.5 -35 t-36.5 -93l207 27q-14 101 -92 101z" unicode="è" glyph-name="egrave"/>
<glyph horiz-adv-x="462" d="M378 705q-22 -45 -64 -91.5t-88 -75.5l-11 19q68 72 89 177q48 2 74 -29zM415 109l16 -16q-64 -108 -182 -108q-84 0 -143.5 57t-59.5 163q0 111 63.5 180.5t155.5 69.5q69 0 115 -41t46 -117l-300 -39v-11q0 -91 42 -143.5t112 -52.5q72 0 135 58zM244 418 q-50 0 -78.5 -35t-36.5 -93l207 27q-14 101 -92 101z" unicode="é" glyph-name="eacute"/>
<glyph horiz-adv-x="462" d="M242 627q-60 -75 -104 -109l-19 9q72 91 126 207h2q54 -116 126 -207l-19 -9q-60 41 -112 109zM415 109l16 -16q-64 -108 -182 -108q-84 0 -143.5 57t-59.5 163q0 111 63.5 180.5t155.5 69.5q69 0 115 -41t46 -117l-300 -39v-11q0 -91 42 -143.5t112 -52.5q72 0 135 58z M244 418q-50 0 -78.5 -35t-36.5 -93l207 27q-14 101 -92 101z" unicode="ê" glyph-name="ecircumflex"/>
<glyph horiz-adv-x="462" d="M153 561q-21 0 -35 14.5t-14 34.5t14 34t35 14q20 0 34.5 -14t14.5 -34t-14.5 -34.5t-34.5 -14.5zM341 561q-21 0 -35 14.5t-14 34.5t14 34t35 14q20 0 34.5 -14t14.5 -34t-14.5 -34.5t-34.5 -14.5zM415 109l16 -16q-64 -108 -182 -108q-84 0 -143.5 57t-59.5 163 q0 111 63.5 180.5t155.5 69.5q69 0 115 -41t46 -117l-300 -39v-11q0 -91 42 -143.5t112 -52.5q72 0 135 58zM244 418q-50 0 -78.5 -35t-36.5 -93l207 27q-14 101 -92 101z" unicode="ë" glyph-name="edieresis"/>
<glyph horiz-adv-x="293" d="M92 734q21 -105 89 -177l-11 -19q-46 29 -88 75.5t-64 91.5q26 31 74 29zM190 101q0 -51 15.5 -63.5t69.5 -14.5v-23h-225v23q36 2 48 15t12 63v226q0 26 -7.5 35.5t-23.5 9.5q-22 0 -54 -14l-10 23l173 79l6 -6q-4 -22 -4 -126v-227z" unicode="ì" glyph-name="igrave"/>
<glyph horiz-adv-x="293" d="M208 734q48 2 74 -29q-22 -45 -64 -91.5t-88 -75.5l-11 19q68 72 89 177zM190 101q0 -51 15.5 -63.5t69.5 -14.5v-23h-225v23q36 2 48 15t12 63v226q0 26 -7.5 35.5t-23.5 9.5q-22 0 -54 -14l-10 23l173 79l6 -6q-4 -22 -4 -126v-227z" unicode="í" glyph-name="iacute"/>
<glyph horiz-adv-x="293" d="M258 518q-60 41 -112 109q-60 -75 -104 -109l-19 9q72 91 126 207h2q54 -116 126 -207zM190 101q0 -51 15.5 -63.5t69.5 -14.5v-23h-225v23q36 2 48 15t12 63v226q0 26 -7.5 35.5t-23.5 9.5q-22 0 -54 -14l-10 23l173 79l6 -6q-4 -22 -4 -126v-227z" unicode="î" glyph-name="icircumflex"/>
<glyph horiz-adv-x="293" d="M57 561q-21 0 -35 14.5t-14 34.5t14 34t35 14q20 0 34.5 -14t14.5 -34t-14.5 -34.5t-34.5 -14.5zM245 561q-21 0 -35 14.5t-14 34.5t14 34t35 14q20 0 34.5 -14t14.5 -34t-14.5 -34.5t-34.5 -14.5zM190 101q0 -51 15.5 -63.5t69.5 -14.5v-23h-225v23q36 2 48 15t12 63 v226q0 26 -7.5 35.5t-23.5 9.5q-22 0 -54 -14l-10 23l173 79l6 -6q-4 -22 -4 -126v-227z" unicode="ï" glyph-name="idieresis"/>
<glyph horiz-adv-x="530" d="M267 711q79 -58 130 -139.5t69 -155.5t18 -151q0 -75 -19 -131.5t-52 -87.5t-71 -46t-82 -15q-89 0 -151.5 62t-62.5 158q0 100 69.5 160t162.5 60q60 0 107 -27h2q-30 168 -154 280l-73 -68l-19 19l71 66q-47 38 -106 63l10 32q72 -26 129 -64l68 64l19 -19zM276 25 q60 0 96.5 41t36.5 125t-37.5 141t-107.5 57q-60 0 -96.5 -40t-36.5 -122q0 -85 37 -143.5t108 -58.5z" unicode="ð" glyph-name="eth"/>
<glyph horiz-adv-x="581" d="M233 600q-22 0 -35 -14t-20 -45l-23 5q12 113 87 113q32 0 73 -29.5t61 -29.5q22 0 35 14t20 45l23 -5q-12 -113 -87 -113q-31 0 -73 29.5t-61 29.5zM481 101q0 -51 15 -63.5t70 -14.5v-23h-225v23q36 2 48 15t12 63v215q0 75 -69 75q-70 0 -143 -58v-232q0 -51 15 -63.5 t70 -14.5v-23h-225v23q36 2 48 15t12 63v227q0 26 -7.5 35t-22.5 9q-20 0 -43 -10l-10 23l161 75l6 -6q-7 -28 -7 -90h2q88 91 179 91q114 0 114 -115v-239z" unicode="ñ" glyph-name="ntilde"/>
<glyph horiz-adv-x="535" d="M199 734q21 -105 89 -177l-11 -19q-46 29 -88 75.5t-64 91.5q26 31 74 29zM274 455q89 0 152 -63.5t63 -163.5q0 -112 -71 -177.5t-158 -65.5q-89 0 -151.5 63.5t-62.5 163.5q0 112 70.5 177.5t157.5 65.5zM277 25q60 0 93.5 43.5t33.5 130.5q0 93 -41 154.5t-106 61.5 q-59 0 -92.5 -43.5t-33.5 -130.5q0 -92 41 -154t105 -62z" unicode="ò" glyph-name="ograve"/>
<glyph horiz-adv-x="535" d="M315 734q48 2 74 -29q-22 -45 -64 -91.5t-88 -75.5l-11 19q68 72 89 177zM274 455q89 0 152 -63.5t63 -163.5q0 -112 -71 -177.5t-158 -65.5q-89 0 -151.5 63.5t-62.5 163.5q0 112 70.5 177.5t157.5 65.5zM277 25q60 0 93.5 43.5t33.5 130.5q0 93 -41 154.5t-106 61.5 q-59 0 -92.5 -43.5t-33.5 -130.5q0 -92 41 -154t105 -62z" unicode="ó" glyph-name="oacute"/>
<glyph horiz-adv-x="535" d="M365 518q-60 41 -112 109q-60 -75 -104 -109l-19 9q72 91 126 207h2q54 -116 126 -207zM274 455q89 0 152 -63.5t63 -163.5q0 -112 -71 -177.5t-158 -65.5q-89 0 -151.5 63.5t-62.5 163.5q0 112 70.5 177.5t157.5 65.5zM277 25q60 0 93.5 43.5t33.5 130.5q0 93 -41 154.5 t-106 61.5q-59 0 -92.5 -43.5t-33.5 -130.5q0 -92 41 -154t105 -62z" unicode="ô" glyph-name="ocircumflex"/>
<glyph horiz-adv-x="535" d="M188 600q-22 0 -35 -14t-20 -45l-23 5q12 113 87 113q31 0 73 -29.5t61 -29.5q22 0 35 14t20 45l23 -5q-12 -113 -87 -113q-32 0 -73 29.5t-61 29.5zM274 455q89 0 152 -63.5t63 -163.5q0 -112 -71 -177.5t-158 -65.5q-89 0 -151.5 63.5t-62.5 163.5q0 112 70.5 177.5 t157.5 65.5zM277 25q60 0 93.5 43.5t33.5 130.5q0 93 -41 154.5t-106 61.5q-59 0 -92.5 -43.5t-33.5 -130.5q0 -92 41 -154t105 -62z" unicode="õ" glyph-name="otilde"/>
<glyph horiz-adv-x="535" d="M164 561q-21 0 -35 14.5t-14 34.5t14 34t35 14q20 0 34.5 -14t14.5 -34t-14.5 -34.5t-34.5 -14.5zM352 561q-21 0 -35 14.5t-14 34.5t14 34t35 14q20 0 34.5 -14t14.5 -34t-14.5 -34.5t-34.5 -14.5zM274 455q89 0 152 -63.5t63 -163.5q0 -112 -71 -177.5t-158 -65.5 q-89 0 -151.5 63.5t-62.5 163.5q0 112 70.5 177.5t157.5 65.5zM277 25q60 0 93.5 43.5t33.5 130.5q0 93 -41 154.5t-106 61.5q-59 0 -92.5 -43.5t-33.5 -130.5q0 -92 41 -154t105 -62z" unicode="ö" glyph-name="odieresis"/>
<glyph horiz-adv-x="547" d="M274 309q-21 0 -36 15t-15 36t15 35.5t36 14.5t36 -14.5t15 -35.5t-15 -36t-36 -15zM452 205h-357v41h357v-41zM274 47q-21 0 -36 15t-15 36t15 35.5t36 14.5t36 -14.5t15 -35.5t-15 -36t-36 -15z" unicode="÷" glyph-name="divide"/>
<glyph horiz-adv-x="535" d="M414 402q75 -65 75 -174q0 -112 -71 -177.5t-158 -65.5q-62 0 -114 33l-49 -70l-28 19l50 72q-73 66 -73 173q0 112 70.5 177.5t157.5 65.5q63 0 113 -32l50 71l28 -19zM131 241q0 -80 32 -139l187 268q-39 45 -93 45q-59 0 -92.5 -43.5t-33.5 -130.5zM277 25 q60 0 93.5 43.5t33.5 130.5q0 83 -33 141l-188 -268q39 -47 94 -47z" unicode="ø" glyph-name="oslash"/>
<glyph horiz-adv-x="567" d="M230 734q21 -105 89 -177l-11 -19q-46 29 -88 75.5t-64 91.5q26 31 74 29zM542 77l10 -23l-162 -75l-6 6q7 28 7 92h-2q-90 -92 -174 -92q-112 0 -112 115v230q0 42 -31 42q-20 0 -43 -10l-10 23l162 75l6 -6q-4 -22 -4 -123v-206q0 -37 15 -56t52 -19q67 0 138 57v223 q0 24 -7.5 33t-23.5 9q-22 0 -52 -14l-10 23l171 79l6 -6q-4 -22 -4 -123v-219q0 -26 7.5 -35t23.5 -9q22 0 43 9z" unicode="ù" glyph-name="ugrave"/>
<glyph horiz-adv-x="567" d="M346 734q48 2 74 -29q-22 -45 -64 -91.5t-88 -75.5l-11 19q68 72 89 177zM542 77l10 -23l-162 -75l-6 6q7 28 7 92h-2q-90 -92 -174 -92q-112 0 -112 115v230q0 42 -31 42q-20 0 -43 -10l-10 23l162 75l6 -6q-4 -22 -4 -123v-206q0 -37 15 -56t52 -19q67 0 138 57v223 q0 24 -7.5 33t-23.5 9q-22 0 -52 -14l-10 23l171 79l6 -6q-4 -22 -4 -123v-219q0 -26 7.5 -35t23.5 -9q22 0 43 9z" unicode="ú" glyph-name="uacute"/>
<glyph horiz-adv-x="567" d="M396 518q-60 41 -112 109q-60 -75 -104 -109l-19 9q72 91 126 207h2q54 -116 126 -207zM542 77l10 -23l-162 -75l-6 6q7 28 7 92h-2q-90 -92 -174 -92q-112 0 -112 115v230q0 42 -31 42q-20 0 -43 -10l-10 23l162 75l6 -6q-4 -22 -4 -123v-206q0 -37 15 -56t52 -19 q67 0 138 57v223q0 24 -7.5 33t-23.5 9q-22 0 -52 -14l-10 23l171 79l6 -6q-4 -22 -4 -123v-219q0 -26 7.5 -35t23.5 -9q22 0 43 9z" unicode="û" glyph-name="ucircumflex"/>
<glyph horiz-adv-x="567" d="M195 561q-21 0 -35 14.5t-14 34.5t14 34t35 14q20 0 34.5 -14t14.5 -34t-14.5 -34.5t-34.5 -14.5zM383 561q-21 0 -35 14.5t-14 34.5t14 34t35 14q20 0 34.5 -14t14.5 -34t-14.5 -34.5t-34.5 -14.5zM542 77l10 -23l-162 -75l-6 6q7 28 7 92h-2q-90 -92 -174 -92 q-112 0 -112 115v230q0 42 -31 42q-20 0 -43 -10l-10 23l162 75l6 -6q-4 -22 -4 -123v-206q0 -37 15 -56t52 -19q67 0 138 57v223q0 24 -7.5 33t-23.5 9q-22 0 -52 -14l-10 23l171 79l6 -6q-4 -22 -4 -123v-219q0 -26 7.5 -35t23.5 -9q22 0 43 9z" unicode="ü" glyph-name="udieresis"/>
<glyph horiz-adv-x="472" d="M296 734q48 2 74 -29q-22 -45 -64 -91.5t-88 -75.5l-11 19q68 72 89 177zM69 -235q-35 0 -54.5 21.5t-19.5 59.5q0 29 15 69h23q3 -44 15.5 -64.5t38.5 -20.5q29 0 61 43t77 135l-149 334q-21 47 -36.5 60t-44.5 15v23h213v-23q-49 -2 -56.5 -15t13.5 -60l100 -230h2 l93 230q10 24 12 38t-6.5 22t-23 11t-43.5 4v23h178v-23q-25 -2 -40 -16t-33 -59l-107 -263q-30 -74 -47.5 -114.5t-41 -85t-42.5 -65.5t-44 -35t-53 -14z" unicode="ý" glyph-name="yacute"/>
<glyph horiz-adv-x="564" d="M261 -13q-46 0 -79 9v-120q0 -51 17 -63.5t78 -14.5v-23h-234v23q36 2 48 15t12 63v781q0 26 -7.5 35t-23.5 9q-26 0 -54 -14l-10 23l172 80l6 -6q-4 -22 -4 -126v-292q65 91 159 91q74 0 125.5 -56.5t51.5 -153.5q0 -120 -78.5 -190t-178.5 -70zM310 397q-62 0 -128 -62 v-262q39 -41 105 -41q68 0 108.5 45.5t40.5 135.5q0 85 -34.5 134.5t-91.5 49.5z" unicode="þ" glyph-name="thorn"/>
<glyph horiz-adv-x="635" d="M152 823h328v-59h-328v59zM543 100q17 -50 33 -62.5t58 -14.5v-23h-239v23q53 2 63.5 14.5t-4.5 62.5l-57 172q-8 -8 -36 -8h-131q-23 0 -33.5 -5.5t-18.5 -26.5l-47 -132q-13 -40 2 -57.5t76 -19.5v-23h-207v23q31 2 49.5 20t33.5 57l177 486q29 77 35 102h49 q9 -34 34 -102zM363 300q14 0 18 4t0 15l-82 243h-2l-96 -265q6 3 28 3h134z" unicode="Ā" glyph-name="Amacron"/>
<glyph horiz-adv-x="480" d="M375 636v-58h-266v58h266zM472 85l16 -16q-46 -79 -110 -79q-66 0 -81 67h-2q-55 -72 -137 -72q-48 0 -77 24.5t-29 70.5q0 58 55.5 99t187.5 74v65q0 95 -84 95q-91 0 -113 -121h-23v125q79 38 162 38q77 0 107.5 -30t30.5 -86v-242q0 -53 33 -53q29 0 64 41zM295 88 v134q-96 -24 -128.5 -55.5t-32.5 -66.5q0 -28 17 -42t44 -14q48 0 100 44z" unicode="ā" glyph-name="amacron"/>
<glyph horiz-adv-x="635" d="M426 870l19 -9q-8 -68 -43 -104t-85 -36q-51 0 -86 36t-43 104l19 9q34 -80 110 -80q75 0 109 80zM543 100q17 -50 33 -62.5t58 -14.5v-23h-239v23q53 2 63.5 14.5t-4.5 62.5l-57 172q-8 -8 -36 -8h-131q-23 0 -33.5 -5.5t-18.5 -26.5l-47 -132q-13 -40 2 -57.5t76 -19.5 v-23h-207v23q31 2 49.5 20t33.5 57l177 486q29 77 35 102h49q9 -34 34 -102zM363 300q14 0 18 4t0 15l-82 243h-2l-96 -265q6 3 28 3h134z" unicode="Ă" glyph-name="Abreve"/>
<glyph horiz-adv-x="480" d="M242 529q-49 0 -84 40.5t-41 124.5l19 9q30 -110 111 -110q71 0 102 110l19 -9q-7 -84 -42 -124.5t-84 -40.5zM472 85l16 -16q-46 -79 -110 -79q-66 0 -81 67h-2q-55 -72 -137 -72q-48 0 -77 24.5t-29 70.5q0 58 55.5 99t187.5 74v65q0 95 -84 95q-91 0 -113 -121h-23 v125q79 38 162 38q77 0 107.5 -30t30.5 -86v-242q0 -53 33 -53q29 0 64 41zM295 88v134q-96 -24 -128.5 -55.5t-32.5 -66.5q0 -28 17 -42t44 -14q48 0 100 44z" unicode="ă" glyph-name="abreve"/>
<glyph horiz-adv-x="634" d="M543 100q16 -50 32.5 -62.5t57.5 -14.5v-23h-65q-58 0 -91 -42.5t-33 -86.5q0 -37 26 -51.5t62 -4.5l11 -16q-30 -34 -81 -34q-40 0 -66 21t-26 62q0 47 33 89t84 67l-90 268q-8 -8 -36 -8h-131q-23 0 -33.5 -5.5t-18.5 -26.5l-47 -132q-13 -40 2 -57.5t76 -19.5v-23 h-207v23q31 2 49.5 20t33.5 57l177 486q29 77 35 102h49q9 -34 34 -102zM362 300q14 0 18.5 4t0.5 15l-82 243h-2l-96 -265q6 3 28 3h133z" unicode="Ą" glyph-name="Aogonek"/>
<glyph horiz-adv-x="481" d="M361 -235q-37 0 -61.5 22t-24.5 59q0 68 100 137v2q-30 3 -50.5 22t-26.5 50h-2q-56 -72 -137 -72q-49 0 -78 25t-29 70q0 58 56 99t188 74v65q0 94 -84 94q-91 0 -113 -121h-23v126q103 38 162 38q77 0 107.5 -30t30.5 -86v-247q0 -53 33 -53q29 0 64 41l16 -16 q-13 -26 -39.5 -53.5t-48.5 -46t-39 -45.5t-17 -55q0 -33 26 -45.5t62 -3.5l11 -16q-30 -34 -83 -34zM196 44q48 0 100 44v134q-96 -24 -128.5 -55.5t-32.5 -66.5q0 -28 17 -42t44 -14z" unicode="ą" glyph-name="aogonek"/>
<glyph horiz-adv-x="704" d="M469 870q47 2 75 -29q-61 -77 -171 -117l-11 19q63 42 107 127zM406 -15q-149 0 -247.5 95.5t-98.5 246.5q0 159 109 256t267 97q54 0 111.5 -11t91.5 -26v-158h-23q-6 81 -61 118t-132 37q-115 0 -193 -76.5t-78 -220.5q0 -142 74 -230t181 -88q89 0 152 59.5t80 135.5 h23l-6 -117q-96 -118 -250 -118z" unicode="Ć" glyph-name="Cacute"/>
<glyph horiz-adv-x="471" d="M314 734q48 2 74 -29q-22 -45 -64 -91.5t-88 -75.5l-11 19q68 72 89 177zM249 -15q-84 0 -143.5 58.5t-59.5 163.5q0 114 70 181t169 67q79 0 133 -36v-131h-23q-8 70 -44.5 100t-84.5 30q-64 0 -101 -48.5t-37 -124.5q0 -87 44.5 -140.5t113.5 -53.5q71 0 132 58l16 -16 q-30 -49 -78 -78.5t-107 -29.5z" unicode="ć" glyph-name="cacute"/>
<glyph horiz-adv-x="704" d="M521 724q-55 22 -113 69q-61 -49 -105 -69l-19 9q58 57 127 148h2q65 -86 127 -148zM406 -15q-149 0 -247.5 95.5t-98.5 246.5q0 159 109 256t267 97q54 0 111.5 -11t91.5 -26v-158h-23q-6 81 -61 118t-132 37q-115 0 -193 -76.5t-78 -220.5q0 -142 74 -230t181 -88 q89 0 152 59.5t80 135.5h23l-6 -117q-96 -118 -250 -118z" unicode="Ĉ" glyph-name="Ccircumflex"/>
<glyph horiz-adv-x="471" d="M364 518q-60 41 -112 109q-60 -75 -104 -109l-19 9q72 91 126 207h2q54 -116 126 -207zM249 -15q-84 0 -143.5 58.5t-59.5 163.5q0 114 70 181t169 67q79 0 133 -36v-131h-23q-8 70 -44.5 100t-84.5 30q-64 0 -101 -48.5t-37 -124.5q0 -87 44.5 -140.5t113.5 -53.5 q71 0 132 58l16 -16q-30 -49 -78 -78.5t-107 -29.5z" unicode="ĉ" glyph-name="ccircumflex"/>
<glyph horiz-adv-x="704" d="M412 741q-22 0 -36.5 15t-14.5 37q0 21 14.5 36t36.5 15t37 -15t15 -36q0 -22 -15 -37t-37 -15zM406 -15q-149 0 -247.5 95.5t-98.5 246.5q0 159 109 256t267 97q54 0 111.5 -11t91.5 -26v-158h-23q-6 81 -61 118t-132 37q-115 0 -193 -76.5t-78 -220.5q0 -142 74 -230 t181 -88q89 0 152 59.5t80 135.5h23l-6 -117q-96 -118 -250 -118z" unicode="Ċ" glyph-name="Cdotaccent"/>
<glyph horiz-adv-x="471" d="M256 554q-22 0 -37 15t-15 37q0 21 15 36t37 15t37 -15t15 -36q0 -22 -15 -37t-37 -15zM249 -15q-84 0 -143.5 58.5t-59.5 163.5q0 114 70 181t169 67q79 0 133 -36v-131h-23q-8 70 -44.5 100t-84.5 30q-64 0 -101 -48.5t-37 -124.5q0 -87 44.5 -140.5t113.5 -53.5 q71 0 132 58l16 -16q-30 -49 -78 -78.5t-107 -29.5z" unicode="ċ" glyph-name="cdotaccent"/>
<glyph horiz-adv-x="704" d="M521 871l19 -9q-62 -62 -127 -148h-2q-69 91 -127 148l19 9q57 -23 114 -69q56 47 104 69zM406 -15q-149 0 -247.5 95.5t-98.5 246.5q0 159 109 256t267 97q54 0 111.5 -11t91.5 -26v-158h-23q-6 81 -61 118t-132 37q-115 0 -193 -76.5t-78 -220.5q0 -142 74 -230 t181 -88q89 0 152 59.5t80 135.5h23l-6 -117q-96 -118 -250 -118z" unicode="Č" glyph-name="Ccaron"/>
<glyph horiz-adv-x="471" d="M364 724l19 -9q-73 -93 -126 -207h-2q-53 114 -126 207l19 9q61 -42 112 -108q58 73 104 108zM249 -15q-84 0 -143.5 58.5t-59.5 163.5q0 114 70 181t169 67q79 0 133 -36v-131h-23q-8 70 -44.5 100t-84.5 30q-64 0 -101 -48.5t-37 -124.5q0 -87 44.5 -140.5t113.5 -53.5 q71 0 132 58l16 -16q-30 -49 -78 -78.5t-107 -29.5z" unicode="č" glyph-name="ccaron"/>
<glyph horiz-adv-x="765" d="M490 871l19 -9q-62 -62 -127 -148h-2q-69 91 -127 148l19 9q57 -23 114 -69q56 47 104 69zM66 0v23q43 2 56.5 15t13.5 62v465q0 50 -17 62.5t-78 14.5v23h95q50 0 120.5 2.5t89.5 2.5q166 0 262.5 -81.5t96.5 -235.5q0 -106 -52 -188t-134 -123.5t-176 -41.5h-277z M313 36q149 0 224.5 79.5t75.5 222.5q0 296 -295 296q-58 0 -77.5 -12.5t-19.5 -56.5v-465q0 -41 18.5 -52.5t73.5 -11.5z" unicode="Ď" glyph-name="Dcaron"/>
<glyph horiz-adv-x="561" d="M542 573h-23q28 96 8 215q33 17 68 2q-2 -131 -53 -217zM493 68q21 0 43 9l10 -23l-163 -75l-6 6q7 28 7 92h-1q-66 -92 -160 -92q-74 0 -125.5 56.5t-51.5 153.5q0 120 78.5 190t178.5 70q46 0 79 -9v211q0 26 -7.5 35t-23.5 9q-26 0 -54 -14l-10 23l173 80l6 -6 q-4 -22 -4 -126v-546q0 -26 7.5 -35t23.5 -9zM254 45q62 0 128 62v262q-39 41 -105 41q-68 0 -108.5 -45.5t-40.5 -135.5q0 -85 34.5 -134.5t91.5 -49.5z" unicode="ď" glyph-name="dcaron"/>
<glyph horiz-adv-x="765" d="M346 670q166 0 262.5 -81.5t96.5 -235.5q0 -106 -52 -188t-134 -123.5t-176 -41.5h-277v23q43 2 56.5 15t13.5 62v231h-99v36h99v198q0 50 -17 62.5t-78 14.5v23h95q50 0 120.5 2.5t89.5 2.5zM313 36q149 0 224.5 79.5t75.5 222.5q0 296 -295 296q-58 0 -77.5 -12.5 t-19.5 -56.5v-198h160v-36h-160v-231q0 -41 18.5 -52.5t73.5 -11.5z" unicode="Đ" glyph-name="Dcroat"/>
<glyph horiz-adv-x="564" d="M536 77l10 -23l-163 -75l-6 6q7 28 7 92h-1q-66 -92 -160 -92q-74 0 -125.5 56.5t-51.5 153.5q0 120 78.5 190t178.5 70q46 0 79 -9v110h-150v36h150v65q0 26 -7.5 35t-23.5 9q-26 0 -54 -14l-10 23l173 80l6 -6q-4 -22 -4 -126v-66h74v-36h-74v-444q0 -26 7.5 -35 t23.5 -9q21 0 43 9zM254 45q62 0 128 62v262q-39 41 -105 41q-68 0 -108.5 -45.5t-40.5 -135.5q0 -85 34.5 -134.5t91.5 -49.5z" unicode="đ" glyph-name="dcroat"/>
<glyph horiz-adv-x="628" d="M166 823h328v-59h-328v59zM66 0v23q43 2 56.5 15t13.5 62v465q0 50 -17 62.5t-78 14.5v23h476v-140h-23q-3 53 -26 78.5t-88 25.5h-115q-24 0 -34 -12t-10 -52v-188q14 10 47 10h141q59 0 62 66h23v-170h-23q-1 40 -14 54t-48 14h-139q-28 0 -38.5 -9t-10.5 -35v-207 q0 -42 14.5 -53t61.5 -11h139q123 0 134 120h23l-8 -156h-519z" unicode="Ē" glyph-name="Emacron"/>
<glyph horiz-adv-x="462" d="M380 636v-58h-266v58h266zM415 109l16 -16q-64 -108 -182 -108q-84 0 -143.5 57t-59.5 163q0 111 63.5 180.5t155.5 69.5q69 0 115 -41t46 -117l-300 -39v-11q0 -91 42 -143.5t112 -52.5q72 0 135 58zM244 418q-50 0 -78.5 -35t-36.5 -93l207 27q-14 101 -92 101z" unicode="ē" glyph-name="emacron"/>
<glyph horiz-adv-x="628" d="M440 870l19 -9q-8 -68 -43 -104t-85 -36q-51 0 -86 36t-43 104l19 9q34 -80 110 -80q75 0 109 80zM66 0v23q43 2 56.5 15t13.5 62v465q0 50 -17 62.5t-78 14.5v23h476v-140h-23q-3 53 -26 78.5t-88 25.5h-115q-24 0 -34 -12t-10 -52v-188q14 10 47 10h141q59 0 62 66h23 v-170h-23q-1 40 -14 54t-48 14h-139q-28 0 -38.5 -9t-10.5 -35v-207q0 -42 14.5 -53t61.5 -11h139q123 0 134 120h23l-8 -156h-519z" unicode="Ĕ" glyph-name="Ebreve"/>
<glyph horiz-adv-x="628" d="M330 741q-22 0 -36.5 15t-14.5 37q0 21 14.5 36t36.5 15t37 -15t15 -36q0 -22 -15 -37t-37 -15zM66 0v23q43 2 56.5 15t13.5 62v465q0 50 -17 62.5t-78 14.5v23h476v-140h-23q-3 53 -26 78.5t-88 25.5h-115q-24 0 -34 -12t-10 -52v-188q14 10 47 10h141q59 0 62 66h23 v-170h-23q-1 40 -14 54t-48 14h-139q-28 0 -38.5 -9t-10.5 -35v-207q0 -42 14.5 -53t61.5 -11h139q123 0 134 120h23l-8 -156h-519z" unicode="Ė" glyph-name="Edotaccent"/>
<glyph horiz-adv-x="462" d="M246 554q-22 0 -37 15t-15 37q0 21 15 36t37 15t37 -15t15 -36q0 -22 -15 -37t-37 -15zM415 109l16 -16q-64 -108 -182 -108q-84 0 -143.5 57t-59.5 163q0 111 63.5 180.5t155.5 69.5q69 0 115 -41t46 -117l-300 -39v-11q0 -91 42 -143.5t112 -52.5q72 0 135 58zM244 418 q-50 0 -78.5 -35t-36.5 -93l207 27q-14 101 -92 101z" unicode="ė" glyph-name="edotaccent"/>
<glyph horiz-adv-x="628" d="M570 156h23l-8 -156h-57q-59 0 -91.5 -42.5t-32.5 -86.5q0 -37 26 -51.5t62 -4.5l11 -16q-30 -34 -81 -34q-40 0 -66 21t-26 63q0 83 108 149v2h-372v23q43 2 56.5 15t13.5 62v465q0 50 -17 62.5t-78 14.5v23h476v-140h-23q-3 53 -26 78.5t-88 25.5h-115q-24 0 -34 -12 t-10 -52v-188q14 10 47 10h141q59 0 62 66h23v-170h-23q-1 40 -14 54t-48 14h-139q-28 0 -38.5 -9t-10.5 -35v-207q0 -42 14.5 -53t61.5 -11h139q123 0 134 120z" unicode="Ę" glyph-name="Eogonek"/>
<glyph horiz-adv-x="462" d="M355 14q-90 -78 -90 -145q0 -38 25 -50t62 -4l11 -16q-30 -34 -83 -34q-36 0 -60.5 22t-24.5 59q0 70 91 141v2q-15 -4 -40 -4q-84 0 -142 57t-58 163q0 111 63.5 180.5t155.5 69.5q69 0 115 -41t46 -117l-300 -39v-11q0 -91 41.5 -143.5t111.5 -52.5q73 0 136 58l16 -16 q-8 -13 -18.5 -25.5t-17.5 -19t-22 -19t-18 -15.5zM244 418q-50 0 -78.5 -35t-36.5 -93l207 27q-14 101 -92 101z" unicode="ę" glyph-name="eogonek"/>
<glyph horiz-adv-x="628" d="M439 871l19 -9q-62 -62 -127 -148h-2q-69 91 -127 148l19 9q57 -23 114 -69q56 47 104 69zM66 0v23q43 2 56.5 15t13.5 62v465q0 50 -17 62.5t-78 14.5v23h476v-140h-23q-3 53 -26 78.5t-88 25.5h-115q-24 0 -34 -12t-10 -52v-188q14 10 47 10h141q59 0 62 66h23v-170 h-23q-1 40 -14 54t-48 14h-139q-28 0 -38.5 -9t-10.5 -35v-207q0 -42 14.5 -53t61.5 -11h139q123 0 134 120h23l-8 -156h-519z" unicode="Ě" glyph-name="Ecaron"/>
<glyph horiz-adv-x="462" d="M247 508h-2q-53 114 -126 207l19 9q61 -42 112 -108q58 73 104 108l19 -9q-73 -93 -126 -207zM415 109l16 -16q-64 -108 -182 -108q-84 0 -143.5 57t-59.5 163q0 111 63.5 180.5t155.5 69.5q69 0 115 -41t46 -117l-300 -39v-11q0 -91 42 -143.5t112 -52.5q72 0 135 58z M244 418q-50 0 -78.5 -35t-36.5 -93l207 27q-14 101 -92 101z" unicode="ě" glyph-name="ecaron"/>
<glyph horiz-adv-x="731" d="M517 870l19 -9q-8 -68 -43 -104t-85 -36q-51 0 -86 36t-43 104l19 9q34 -80 110 -80q75 0 109 80zM396 -15q-140 0 -238 96t-98 246q0 159 109 256t267 97q118 0 203 -37v-153h-23q-6 80 -60.5 115t-130.5 35q-117 0 -195 -76.5t-78 -218.5q0 -145 78 -233.5t188 -88.5 q108 0 142 75q12 27 12 92q0 37 -5 57.5t-21 31t-34.5 13t-58.5 3.5v23h233v-23q-20 -1 -27 -12t-7 -35v-58q0 -67 8 -101q-36 -36 -107 -70t-157 -34z" unicode="Ğ" glyph-name="Gbreve"/>
<glyph horiz-adv-x="496" d="M250 529q-49 0 -84 40.5t-41 124.5l19 9q30 -110 111 -110q71 0 102 110l19 -9q-7 -84 -42 -124.5t-84 -40.5zM389 57q93 -15 93 -87q0 -76 -80.5 -140.5t-203.5 -64.5q-68 0 -112.5 24.5t-44.5 75.5q0 61 74 105l23 -4q-27 -39 -27 -84q0 -81 109 -81q76 0 128.5 38.5 t52.5 92.5q0 23 -13 36t-45 18l-213 36q-41 8 -41 55q0 55 70 110q-44 15 -71.5 45t-27.5 75q0 66 56 107t132 41q80 0 130 -41q54 15 64 103h21q18 -23 18 -60q0 -60 -81 -66q21 -31 21 -68q0 -66 -56 -107t-132 -41q-22 0 -47 5q-31 -28 -31 -57q0 -27 26 -31zM235 421 q-44 0 -69.5 -28t-25.5 -73q0 -49 29.5 -80t76.5 -31q44 0 69.5 28t25.5 73q0 49 -29.5 80t-76.5 31z" unicode="ğ" glyph-name="gbreve"/>
<glyph horiz-adv-x="731" d="M407 741q-22 0 -36.5 15t-14.5 37q0 21 14.5 36t36.5 15t37 -15t15 -36q0 -22 -15 -37t-37 -15zM396 -15q-140 0 -238 96t-98 246q0 159 109 256t267 97q118 0 203 -37v-153h-23q-6 80 -60.5 115t-130.5 35q-117 0 -195 -76.5t-78 -218.5q0 -145 78 -233.5t188 -88.5 q108 0 142 75q12 27 12 92q0 37 -5 57.5t-21 31t-34.5 13t-58.5 3.5v23h233v-23q-20 -1 -27 -12t-7 -35v-58q0 -67 8 -101q-36 -36 -107 -70t-157 -34z" unicode="Ġ" glyph-name="Gdotaccent"/>
<glyph horiz-adv-x="496" d="M249 554q-22 0 -37 15t-15 37q0 21 15 36t37 15t37 -15t15 -36q0 -22 -15 -37t-37 -15zM389 57q93 -15 93 -87q0 -76 -80.5 -140.5t-203.5 -64.5q-68 0 -112.5 24.5t-44.5 75.5q0 61 74 105l23 -4q-27 -39 -27 -84q0 -81 109 -81q76 0 128.5 38.5t52.5 92.5q0 23 -13 36 t-45 18l-213 36q-41 8 -41 55q0 55 70 110q-44 15 -71.5 45t-27.5 75q0 66 56 107t132 41q80 0 130 -41q54 15 64 103h21q18 -23 18 -60q0 -60 -81 -66q21 -31 21 -68q0 -66 -56 -107t-132 -41q-22 0 -47 5q-31 -28 -31 -57q0 -27 26 -31zM235 421q-44 0 -69.5 -28 t-25.5 -73q0 -49 29.5 -80t76.5 -31q44 0 69.5 28t25.5 73q0 49 -29.5 80t-76.5 31z" unicode="ġ" glyph-name="gdotaccent"/>
<glyph horiz-adv-x="731" d="M396 -15q-140 0 -238 96t-98 246q0 159 109 256t267 97q118 0 203 -37v-153h-23q-6 80 -60.5 115t-130.5 35q-117 0 -195 -76.5t-78 -218.5q0 -145 78 -233.5t188 -88.5q108 0 142 75q12 27 12 92q0 37 -5 57.5t-21 31t-34.5 13t-58.5 3.5v23h233v-23q-20 -1 -27 -12 t-7 -35v-58q0 -67 8 -101q-36 -36 -107 -70t-157 -34zM427 -40q-36 -5 -67 -39q11 -22 11 -53q0 -43 -35 -72v-22q40 7 72 42.5t32 85.5q0 31 -13 58z" unicode="Ģ" glyph-name="uni0122"/>
<glyph horiz-adv-x="592" d="M293 559q-31 -34 -67 -39q-13 27 -13 58q0 50 32 85.5t72 42.5v-22q-35 -29 -35 -72q0 -31 11 -53zM389 57q93 -15 93 -87q0 -76 -80.5 -140.5t-203.5 -64.5q-68 0 -112.5 24.5t-44.5 75.5q0 61 74 105l23 -4q-27 -39 -27 -84q0 -81 109 -81q76 0 128.5 38.5t52.5 92.5 q0 23 -13 36t-45 18l-213 36q-41 8 -41 55q0 55 70 110q-44 15 -71.5 45t-27.5 75q0 66 56 107t132 41q80 0 130 -41q54 15 64 103h21q18 -23 18 -60q0 -60 -81 -66q21 -31 21 -68q0 -66 -56 -107t-132 -41q-22 0 -47 5q-31 -28 -31 -57q0 -27 26 -31zM235 421 q-44 0 -69.5 -28t-25.5 -73q0 -49 29.5 -80t76.5 -31q44 0 69.5 28t25.5 73q0 49 -29.5 80t-76.5 31z" unicode="ģ" glyph-name="uni0123"/>
<glyph horiz-adv-x="773" d="M754 506h-95v-406q0 -50 16.5 -62.5t77.5 -14.5v-23h-249v23q43 2 56.5 15t13.5 62v275q-13 -11 -47 -11h-264q-28 0 -38.5 -9t-10.5 -35v-220q0 -50 16.5 -62.5t77.5 -14.5v-23h-249v23q43 2 56.5 15t13.5 62v406h-96v36h96v23q0 50 -17 62.5t-78 14.5v23h250v-23 q-43 -2 -56.5 -15t-13.5 -62v-23h360v23q0 50 -17 62.5t-78 14.5v23h250v-23q-43 -2 -56.5 -15t-13.5 -62v-23h95v-36zM574 445v61h-360v-116q14 10 47 10h264q28 0 38.5 9.5t10.5 35.5z" unicode="Ħ" glyph-name="Hbar"/>
<glyph horiz-adv-x="574" d="M475 101q0 -51 15 -63.5t69 -14.5v-23h-224v23q36 2 48 15t12 63v215q0 75 -69 75q-70 0 -143 -58v-232q0 -51 15.5 -63.5t69.5 -14.5v-23h-225v23q36 2 48 15t12 63v455h-84v36h84v65q0 26 -7.5 35t-23.5 9q-26 0 -54 -14l-10 23l173 80l6 -6q-4 -22 -4 -126v-66h140 v-36h-140v-192q89 91 179 91q113 0 113 -115v-239z" unicode="ħ" glyph-name="hbar"/>
<glyph horiz-adv-x="375" d="M112 791q-40 0 -63 -58l-22 5q28 113 103 113q31 0 78 -29t67 -29q40 0 63 58l23 -5q-16 -61 -41.5 -87t-62.5 -26q-31 0 -78 29t-67 29zM75 0v23q43 2 56.5 15t13.5 62v465q0 50 -17 62.5t-78 14.5v23h250v-23q-43 -2 -56.5 -15t-13.5 -62v-465q0 -50 17 -62.5t78 -14.5 v-23h-250z" unicode="Ĩ" glyph-name="Itilde"/>
<glyph horiz-adv-x="293" d="M81 600q-22 0 -35 -14t-20 -45l-23 5q12 113 87 113q32 0 73 -29.5t61 -29.5q22 0 35 14t20 45l23 -5q-12 -113 -87 -113q-31 0 -72.5 29.5t-61.5 29.5zM190 101q0 -51 15.5 -63.5t69.5 -14.5v-23h-225v23q36 2 48 15t12 63v226q0 26 -7.5 35.5t-23.5 9.5q-22 0 -54 -14 l-10 23l173 79l6 -6q-4 -22 -4 -126v-227z" unicode="ĩ" glyph-name="itilde"/>
<glyph horiz-adv-x="375" d="M24 823h328v-59h-328v59zM75 0v23q43 2 56.5 15t13.5 62v465q0 50 -17 62.5t-78 14.5v23h250v-23q-43 -2 -56.5 -15t-13.5 -62v-465q0 -50 17 -62.5t78 -14.5v-23h-250z" unicode="Ī" glyph-name="Imacron"/>
<glyph horiz-adv-x="293" d="M18 636h266v-58h-266v58zM190 101q0 -51 15.5 -63.5t69.5 -14.5v-23h-225v23q36 2 48 15t12 63v226q0 26 -7.5 35.5t-23.5 9.5q-22 0 -54 -14l-10 23l173 79l6 -6q-4 -22 -4 -126v-227z" unicode="ī" glyph-name="imacron"/>
<glyph horiz-adv-x="375" d="M298 870l19 -9q-8 -68 -43 -104t-85 -36q-51 0 -86 36t-43 104l19 9q34 -80 110 -80q75 0 109 80zM75 0v23q43 2 56.5 15t13.5 62v465q0 50 -17 62.5t-78 14.5v23h250v-23q-43 -2 -56.5 -15t-13.5 -62v-465q0 -50 17 -62.5t78 -14.5v-23h-250z" unicode="Ĭ" glyph-name="Ibreve"/>
<glyph horiz-adv-x="293" d="M258 703l19 -9q-7 -84 -42 -124.5t-84 -40.5t-84 40.5t-41 124.5l19 9q30 -110 111 -110q71 0 102 110zM190 101q0 -51 15.5 -63.5t69.5 -14.5v-23h-225v23q36 2 48 15t12 63v226q0 26 -7.5 35.5t-23.5 9.5q-22 0 -54 -14l-10 23l173 79l6 -6q-4 -22 -4 -126v-227z" unicode="ĭ" glyph-name="ibreve"/>
<glyph horiz-adv-x="375" d="M230 100q0 -50 17 -62.5t78 -14.5v-23h-68q-59 0 -91.5 -42.5t-32.5 -86.5q0 -37 26 -51.5t62 -4.5l11 -16q-30 -34 -81 -34q-40 0 -66 21t-26 63q0 83 108 149v2h-92v23q43 2 56.5 15t13.5 62v465q0 50 -17 62.5t-78 14.5v23h250v-23q-43 -2 -56.5 -15t-13.5 -62v-465z " unicode="Į" glyph-name="Iogonek"/>
<glyph horiz-adv-x="293" d="M150 554q-22 0 -37 15t-15 37q0 21 15 36t37 15t37 -15t15 -36q0 -22 -15 -37t-37 -15zM190 101q0 -51 15.5 -63.5t69.5 -14.5v-23h-38q-58 0 -91 -42.5t-33 -86.5q0 -37 26 -51.5t62 -4.5l11 -16q-30 -34 -81 -34q-40 0 -66 21t-26 62q0 45 31 85.5t79 66.5h-99v23 q36 2 48 15t12 63v226q0 26 -7.5 35.5t-23.5 9.5q-22 0 -54 -14l-10 23l173 79l6 -6q-4 -22 -4 -126v-227z" unicode="į" glyph-name="iogonek"/>
<glyph horiz-adv-x="375" d="M188 741q-22 0 -36.5 15t-14.5 37q0 21 14.5 36t36.5 15t37 -15t15 -36q0 -22 -15 -37t-37 -15zM75 0v23q43 2 56.5 15t13.5 62v465q0 50 -17 62.5t-78 14.5v23h250v-23q-43 -2 -56.5 -15t-13.5 -62v-465q0 -50 17 -62.5t78 -14.5v-23h-250z" unicode="İ" glyph-name="Idotaccent"/>
<glyph horiz-adv-x="293" d="M190 101q0 -51 15.5 -63.5t69.5 -14.5v-23h-225v23q36 2 48 15t12 63v226q0 26 -7.5 35.5t-23.5 9.5q-22 0 -54 -14l-10 23l173 79l6 -6q-4 -22 -4 -126v-227z" unicode="ı" glyph-name="dotlessi"/>
<glyph horiz-adv-x="723" d="M75 0v23q43 2 56.5 15t13.5 62v465q0 50 -17 62.5t-78 14.5v23h250v-23q-43 -2 -56.5 -15t-13.5 -62v-465q0 -50 17 -62.5t78 -14.5v-23h-250zM426 -225v22q49 8 64.5 51t15.5 152v565q0 50 -17 62.5t-78 14.5v23h250v-23q-43 -2 -56.5 -15t-13.5 -62v-578 q0 -104 -47 -158t-118 -54z" unicode="Ĳ" glyph-name="IJ"/>
<glyph horiz-adv-x="575" d="M150 554q-22 0 -37 15t-15 37q0 21 15 36t37 15t37 -15t15 -36q0 -22 -15 -37t-37 -15zM436 554q-22 0 -37 15t-15 37q0 21 15 36t37 15t37 -15t15 -36q0 -22 -15 -37t-37 -15zM190 101q0 -51 15.5 -63.5t69.5 -14.5v-23h-225v23q36 2 48 15t12 63v226q0 26 -7.5 35.5 t-23.5 9.5q-22 0 -54 -14l-10 23l173 79l6 -6q-4 -22 -4 -126v-227zM477 460l6 -6q-4 -22 -4 -126v-341q0 -101 -46 -161t-131 -61v22q48 9 72.5 58.5t24.5 156.5v325q0 26 -7.5 35.5t-23.5 9.5q-22 0 -54 -14l-10 23z" unicode="ĳ" glyph-name="ij"/>
<glyph horiz-adv-x="348" d="M283 724q-55 22 -113 69q-61 -49 -105 -69l-19 9q58 57 127 148h2q65 -86 127 -148zM51 -225v22q49 8 64.5 51t15.5 152v565q0 50 -17 62.5t-78 14.5v23h250v-23q-43 -2 -56.5 -15t-13.5 -62v-578q0 -104 -47 -158t-118 -54z" unicode="Ĵ" glyph-name="Jcircumflex"/>
<glyph horiz-adv-x="282" d="M251 518q-60 41 -112 109q-60 -75 -104 -109l-19 9q72 91 126 207h2q54 -116 126 -207zM184 460l6 -6q-4 -22 -4 -126v-341q0 -101 -46 -161t-131 -61v22q48 9 72.5 58.5t24.5 156.5v325q0 26 -7.5 35.5t-23.5 9.5q-22 0 -54 -14l-10 23z" unicode="ĵ" glyph-name="jcircumflex"/>
<glyph horiz-adv-x="688" d="M630 -6q-53 0 -84 19.5t-63 59.5l-207 260q-23 28 -35 28q-20 0 -20 -29v-232q0 -50 16.5 -62.5t77.5 -14.5v-23h-249v23q43 2 56.5 15t13.5 62v465q0 50 -17 62.5t-78 14.5v23h250v-23q-43 -2 -56.5 -15t-13.5 -62v-167h2l214 174q38 31 38 48q0 19 -53 22v23h210v-23 q-48 -4 -109 -53l-190 -155q-17 -12 0 -33l234 -298q40 -51 61.5 -65.5t55.5 -14.5v-23q-27 -6 -54 -6zM374 -40q-36 -5 -67 -39q11 -22 11 -53q0 -43 -35 -72v-22q40 7 72 42.5t32 85.5q0 31 -13 58z" unicode="Ķ" glyph-name="uni0136"/>
<glyph horiz-adv-x="526" d="M420 103q34 -51 56.5 -65.5t58.5 -14.5v-23q-25 -6 -50 -6q-50 0 -82 19.5t-57 56.5l-102 152l-61 -66v-55q0 -50 12 -63t48 -15v-23h-200v23q36 2 48 15t12 63v556q0 26 -7.5 35t-23.5 9q-26 0 -54 -14l-10 23l173 80l6 -6q-4 -22 -4 -126v-446h2l123 136q32 35 32 47 q0 19 -56 22v23h200v-23q-36 -2 -58.5 -13.5t-49.5 -39.5l-74 -80zM234 -79q31 34 67 39q13 -27 13 -58q0 -50 -32 -85.5t-72 -42.5v22q35 29 35 72q0 31 -11 53z" unicode="ķ" glyph-name="uni0137"/>
<glyph horiz-adv-x="563" d="M238 870q47 2 75 -29q-61 -77 -171 -117l-11 19q63 42 107 127zM66 0v23q43 2 56.5 15t13.5 62v465q0 50 -17 62.5t-78 14.5v23h250v-23q-43 -2 -56.5 -15t-13.5 -62v-465q0 -42 14.5 -53t61.5 -11h91q69 0 98.5 32t34.5 88h23l-8 -156h-470z" unicode="Ĺ" glyph-name="Lacute"/>
<glyph horiz-adv-x="286" d="M198 955q47 2 75 -29q-61 -77 -171 -117l-11 19q63 42 107 127zM183 101q0 -51 15.5 -63.5t69.5 -14.5v-23h-225v23q36 2 48 15t12 63v556q0 26 -7.5 35t-23.5 9q-26 0 -54 -14l-10 23l173 80l6 -6q-4 -22 -4 -126v-557z" unicode="ĺ" glyph-name="lacute"/>
<glyph horiz-adv-x="563" d="M66 0v23q43 2 56.5 15t13.5 62v465q0 50 -17 62.5t-78 14.5v23h250v-23q-43 -2 -56.5 -15t-13.5 -62v-465q0 -42 14.5 -53t61.5 -11h91q69 0 98.5 32t34.5 88h23l-8 -156h-470zM350 -40q-36 -5 -67 -39q11 -22 11 -53q0 -43 -35 -72v-22q40 7 72 42.5t32 85.5 q0 31 -13 58z" unicode="Ļ" glyph-name="uni013B"/>
<glyph horiz-adv-x="286" d="M183 101q0 -51 15.5 -63.5t69.5 -14.5v-23h-225v23q36 2 48 15t12 63v556q0 26 -7.5 35t-23.5 9q-26 0 -54 -14l-10 23l173 80l6 -6q-4 -22 -4 -126v-557zM170 -40q-36 -5 -67 -39q11 -22 11 -53q0 -43 -35 -72v-22q40 7 72 42.5t32 85.5q0 31 -13 58z" unicode="ļ" glyph-name="uni013C"/>
<glyph horiz-adv-x="537" d="M429 665q33 17 68 2q-2 -131 -53 -217h-23q28 96 8 215zM66 0v23q43 2 56.5 15t13.5 62v465q0 50 -17 62.5t-78 14.5v23h250v-23q-43 -2 -56.5 -15t-13.5 -62v-465q0 -42 14.5 -53t61.5 -11h91q69 0 98.5 32t34.5 88h23l-8 -156h-470z" unicode="Ľ" glyph-name="Lcaron"/>
<glyph horiz-adv-x="277" d="M243 788q33 17 68 2q-2 -131 -53 -217h-23q28 96 8 215zM183 101q0 -51 15.5 -63.5t69.5 -14.5v-23h-225v23q36 2 48 15t12 63v556q0 26 -7.5 35t-23.5 9q-26 0 -54 -14l-10 23l173 80l6 -6q-4 -22 -4 -126v-557z" unicode="ľ" glyph-name="lcaron"/>
<glyph horiz-adv-x="563" d="M66 0v23q43 2 56.5 15t13.5 62v465q0 50 -17 62.5t-78 14.5v23h250v-23q-43 -2 -56.5 -15t-13.5 -62v-465q0 -42 14.5 -53t61.5 -11h91q69 0 98.5 32t34.5 88h23l-8 -156h-470zM407 314q-22 0 -37 15t-15 37q0 21 15 36t37 15t37 -15t15 -36q0 -22 -15 -37t-37 -15z" unicode="Ŀ" glyph-name="Ldot"/>
<glyph horiz-adv-x="318" d="M183 101q0 -51 15.5 -63.5t69.5 -14.5v-23h-225v23q36 2 48 15t12 63v556q0 26 -7.5 35t-23.5 9q-26 0 -54 -14l-10 23l173 80l6 -6q-4 -22 -4 -126v-557zM301 314q-22 0 -37 15t-15 37q0 21 15 36t37 15t37 -15t15 -36q0 -22 -15 -37t-37 -15z" unicode="ŀ" glyph-name="ldot"/>
<glyph horiz-adv-x="571" d="M529 156h23l-8 -156h-470v23q43 2 56.5 15t13.5 62v217l-118 -54v46l118 54v202q0 50 -17 62.5t-78 14.5v23h250v-23q-43 -2 -56.5 -15t-13.5 -62v-163l244 112v-46l-244 -112v-256q0 -42 14.5 -53t61.5 -11h91q69 0 98.5 32t34.5 88z" unicode="Ł" glyph-name="Lslash"/>
<glyph horiz-adv-x="303" d="M281 417l-89 -51v-265q0 -51 15.5 -63.5t69.5 -14.5v-23h-225v23q36 2 48 15t12 63v229l-90 -51v46l90 51v281q0 26 -7.5 35t-23.5 9q-26 0 -54 -14l-10 23l173 80l6 -6q-4 -22 -4 -126v-246l89 51v-46z" unicode="ł" glyph-name="lslash"/>
<glyph horiz-adv-x="788" d="M460 870q47 2 75 -29q-61 -77 -171 -117l-11 19q63 42 107 127zM632 -8q-35 52 -82 104l-365 413h-2v-409q0 -39 20 -57t76 -20v-23h-211v23q39 2 54.5 20.5t15.5 56.5v465q0 39 -22.5 57t-72.5 20v23h136q32 -54 71 -96l369 -413h2v409q0 39 -20 57t-76 20v23h211v-23 q-39 -2 -54.5 -20.5t-15.5 -56.5v-465q0 -70 2 -108h-36z" unicode="Ń" glyph-name="Nacute"/>
<glyph horiz-adv-x="581" d="M360 734q48 2 74 -29q-22 -45 -64 -91.5t-88 -75.5l-11 19q68 72 89 177zM481 101q0 -51 15 -63.5t70 -14.5v-23h-225v23q36 2 48 15t12 63v215q0 75 -69 75q-70 0 -143 -58v-232q0 -51 15 -63.5t70 -14.5v-23h-225v23q36 2 48 15t12 63v227q0 26 -7.5 35t-22.5 9 q-20 0 -43 -10l-10 23l161 75l6 -6q-7 -28 -7 -90h2q88 91 179 91q114 0 114 -115v-239z" unicode="ń" glyph-name="nacute"/>
<glyph horiz-adv-x="788" d="M632 -8q-35 52 -82 104l-365 413h-2v-409q0 -39 20 -57t76 -20v-23h-211v23q39 2 54.5 20.5t15.5 56.5v465q0 39 -22.5 57t-72.5 20v23h136q32 -54 71 -96l369 -413h2v409q0 39 -20 57t-76 20v23h211v-23q-39 -2 -54.5 -20.5t-15.5 -56.5v-465q0 -70 2 -108h-36zM414 -40 q-36 -5 -67 -39q11 -22 11 -53q0 -43 -35 -72v-22q40 7 72 42.5t32 85.5q0 31 -13 58z" unicode="Ņ" glyph-name="uni0145"/>
<glyph horiz-adv-x="581" d="M481 101q0 -51 15 -63.5t70 -14.5v-23h-225v23q36 2 48 15t12 63v215q0 75 -69 75q-70 0 -143 -58v-232q0 -51 15 -63.5t70 -14.5v-23h-225v23q36 2 48 15t12 63v227q0 26 -7.5 35t-22.5 9q-20 0 -43 -10l-10 23l161 75l6 -6q-7 -28 -7 -90h2q88 91 179 91 q114 0 114 -115v-239zM335 -40q-36 -5 -67 -39q11 -22 11 -53q0 -43 -35 -72v-22q40 7 72 42.5t32 85.5q0 31 -13 58z" unicode="ņ" glyph-name="uni0146"/>
<glyph horiz-adv-x="788" d="M512 871l19 -9q-62 -62 -127 -148h-2q-69 91 -127 148l19 9q57 -23 114 -69q56 47 104 69zM632 -8q-35 52 -82 104l-365 413h-2v-409q0 -39 20 -57t76 -20v-23h-211v23q39 2 54.5 20.5t15.5 56.5v465q0 39 -22.5 57t-72.5 20v23h136q32 -54 71 -96l369 -413h2v409 q0 39 -20 57t-76 20v23h211v-23q-39 -2 -54.5 -20.5t-15.5 -56.5v-465q0 -70 2 -108h-36z" unicode="Ň" glyph-name="Ncaron"/>
<glyph horiz-adv-x="581" d="M410 724l19 -9q-73 -93 -126 -207h-2q-53 114 -126 207l19 9q61 -42 112 -108q58 73 104 108zM481 101q0 -51 15 -63.5t70 -14.5v-23h-225v23q36 2 48 15t12 63v215q0 75 -69 75q-70 0 -143 -58v-232q0 -51 15 -63.5t70 -14.5v-23h-225v23q36 2 48 15t12 63v227 q0 26 -7.5 35t-22.5 9q-20 0 -43 -10l-10 23l161 75l6 -6q-7 -28 -7 -90h2q88 91 179 91q114 0 114 -115v-239z" unicode="ň" glyph-name="ncaron"/>
<glyph horiz-adv-x="788" d="M525 665h211v-23q-39 -2 -54.5 -20.5t-15.5 -56.5v-578q0 -105 -47 -163.5t-118 -58.5v22q49 8 66 56t17 157v57q-19 23 -34 39l-365 414h-2v-410q0 -39 20 -57t76 -20v-23h-211v23q39 2 54.5 20.5t15.5 56.5v465q0 39 -22.5 57t-72.5 20v23h136q32 -54 71 -96l369 -414 h2v410q0 39 -20 57t-76 20v23z" unicode="Ŋ" glyph-name="Eng"/>
<glyph horiz-adv-x="572" d="M367 457q113 0 113 -115v-355q0 -98 -46 -159.5t-131 -62.5v22q98 18 98 215v316q0 75 -69 75q-70 0 -143 -58v-234q0 -51 15 -63.5t70 -14.5v-23h-225v23q36 2 48 15t12 63v229q0 26 -7.5 35.5t-22.5 9.5q-20 0 -43 -10l-10 23l161 75l6 -6q-7 -28 -7 -91h2 q88 91 179 91z" unicode="ŋ" glyph-name="eng"/>
<glyph d="M232 823h328v-59h-328v59zM395 680q139 0 237 -96t98 -250t-98 -251.5t-238 -97.5q-139 0 -236.5 96t-97.5 250t98 251.5t237 97.5zM409 25q95 0 162 77t67 213q0 149 -77 237t-180 88q-96 0 -162.5 -77t-66.5 -213q0 -149 77 -237t180 -88z" unicode="Ō" glyph-name="Omacron"/>
<glyph horiz-adv-x="535" d="M125 636h266v-58h-266v58zM274 455q89 0 152 -63.5t63 -163.5q0 -112 -71 -177.5t-158 -65.5q-89 0 -151.5 63.5t-62.5 163.5q0 112 70.5 177.5t157.5 65.5zM277 25q60 0 93.5 43.5t33.5 130.5q0 93 -41 154.5t-106 61.5q-59 0 -92.5 -43.5t-33.5 -130.5q0 -92 41 -154 t105 -62z" unicode="ō" glyph-name="omacron"/>
<glyph d="M506 870l19 -9q-8 -68 -43 -104t-85 -36q-51 0 -86 36t-43 104l19 9q34 -80 110 -80q75 0 109 80zM395 680q139 0 237 -96t98 -250t-98 -251.5t-238 -97.5q-139 0 -236.5 96t-97.5 250t98 251.5t237 97.5zM409 25q95 0 162 77t67 213q0 149 -77 237t-180 88 q-96 0 -162.5 -77t-66.5 -213q0 -149 77 -237t180 -88z" unicode="Ŏ" glyph-name="Obreve"/>
<glyph horiz-adv-x="535" d="M365 703l19 -9q-7 -84 -42 -124.5t-84 -40.5t-84 40.5t-41 124.5l19 9q30 -110 111 -110q71 0 102 110zM274 455q89 0 152 -63.5t63 -163.5q0 -112 -71 -177.5t-158 -65.5q-89 0 -151.5 63.5t-62.5 163.5q0 112 70.5 177.5t157.5 65.5zM277 25q60 0 93.5 43.5t33.5 130.5 q0 93 -41 154.5t-106 61.5q-59 0 -92.5 -43.5t-33.5 -130.5q0 -92 41 -154t105 -62z" unicode="ŏ" glyph-name="obreve"/>
<glyph d="M404 880q46 2 74 -29q-61 -77 -171 -117l-11 19q64 43 108 127zM545 880q48 2 74 -29q-61 -77 -171 -117l-11 19q64 42 108 127zM395 680q139 0 237 -96t98 -250t-98 -251.5t-238 -97.5q-139 0 -236.5 96t-97.5 250t98 251.5t237 97.5zM409 25q95 0 162 77t67 213 q0 149 -77 237t-180 88q-96 0 -162.5 -77t-66.5 -213q0 -149 77 -237t180 -88z" unicode="Ő" glyph-name="Ohungarumlaut"/>
<glyph horiz-adv-x="535" d="M247 734q19 1 40 -7t32 -22q-40 -101 -142 -167l-11 19q60 72 81 177zM369 734q19 1 40.5 -7t32.5 -22q-42 -102 -143 -167l-11 21q62 72 81 175zM274 455q89 0 152 -63.5t63 -163.5q0 -112 -71 -177.5t-158 -65.5q-89 0 -151.5 63.5t-62.5 163.5q0 112 70.5 177.5 t157.5 65.5zM277 25q60 0 93.5 43.5t33.5 130.5q0 93 -41 154.5t-106 61.5q-59 0 -92.5 -43.5t-33.5 -130.5q0 -92 41 -154t105 -62z" unicode="ő" glyph-name="ohungarumlaut"/>
<glyph horiz-adv-x="987" d="M933 156h23l-8 -156h-521q-156 0 -261.5 89t-105.5 242t106 243.5t262 90.5h453v-140h-23q-3 53 -26 78.5t-88 25.5h-106q-24 0 -34 -12t-10 -52v-183q14 10 47 10h131q60 0 63 66h23v-170h-23q-1 40 -14.5 54t-48.5 14h-129q-28 0 -38.5 -9t-10.5 -35v-212 q0 -42 14.5 -53t61.5 -11h129q123 0 134 120zM509 113v440q0 51 -17.5 63.5t-79.5 12.5q-114 0 -187 -71t-73 -207q0 -150 82 -232.5t205 -82.5q43 2 56.5 15t13.5 62z" unicode="Œ" glyph-name="OE"/>
<glyph horiz-adv-x="828" d="M781 109l16 -16q-64 -108 -182 -108q-53 0 -98.5 24t-73.5 70q-33 -45 -82.5 -69.5t-100.5 -24.5q-89 0 -151.5 63.5t-62.5 163.5q0 112 70.5 177.5t157.5 65.5q55 0 102.5 -26.5t76.5 -72.5q31 47 77.5 73t100.5 26q69 0 115 -41t46 -117l-300 -39v-11q0 -91 42 -143.5 t112 -52.5q72 0 135 58zM610 418q-50 0 -78.5 -35t-36.5 -93l207 27q-14 101 -92 101zM277 25q60 0 93.5 43.5t33.5 130.5q0 93 -41 154.5t-106 61.5q-59 0 -92.5 -43.5t-33.5 -130.5q0 -92 41 -154t105 -62z" unicode="œ" glyph-name="oe"/>
<glyph horiz-adv-x="679" d="M365 870q47 2 75 -29q-61 -77 -171 -117l-11 19q63 42 107 127zM634 -6q-39 0 -69 12.5t-45 26.5t-36 40l-206 253q-20 25 -37 26v30q96 -8 150 27t54 107q0 118 -153 118q-39 0 -55 -13t-16 -56v-465q0 -50 16.5 -62.5t77.5 -14.5v-23h-249v23q43 2 56.5 15t13.5 62v465 q0 50 -17 62.5t-78 14.5v23h95q52 0 109 2.5t74 2.5q109 0 163.5 -40t54.5 -107q0 -65 -48 -108.5t-128 -55.5v-2l207 -254q42 -51 63 -65.5t54 -14.5v-23q-22 -6 -51 -6z" unicode="Ŕ" glyph-name="Racute"/>
<glyph horiz-adv-x="391" d="M285 734q48 2 74 -29q-22 -45 -64 -91.5t-88 -75.5l-11 19q68 72 89 177zM49 0v23q36 2 48 15t12 63v229q0 24 -7.5 33t-22.5 9q-20 0 -43 -10l-10 23l161 75l6 -6q-7 -28 -7 -103h2q72 107 194 99q8 -74 0 -148h-23q-4 40 -18.5 57t-40.5 17q-64 0 -111 -60v-215 q0 -51 16.5 -63.5t78.5 -14.5v-23h-235z" unicode="ŕ" glyph-name="racute"/>
<glyph horiz-adv-x="679" d="M634 -6q-39 0 -69 12.5t-45 26.5t-36 40l-206 253q-20 25 -37 26v30q96 -8 150 27t54 107q0 118 -153 118q-39 0 -55 -13t-16 -56v-465q0 -50 16.5 -62.5t77.5 -14.5v-23h-249v23q43 2 56.5 15t13.5 62v465q0 50 -17 62.5t-78 14.5v23h95q52 0 109 2.5t74 2.5 q109 0 163.5 -40t54.5 -107q0 -65 -48 -108.5t-128 -55.5v-2l207 -254q42 -51 63 -65.5t54 -14.5v-23q-22 -6 -51 -6zM414 -40q-36 -5 -67 -39q11 -22 11 -53q0 -43 -35 -72v-22q40 7 72 42.5t32 85.5q0 31 -13 58z" unicode="Ŗ" glyph-name="uni0156"/>
<glyph horiz-adv-x="391" d="M49 0v23q36 2 48 15t12 63v229q0 24 -7.5 33t-22.5 9q-20 0 -43 -10l-10 23l161 75l6 -6q-7 -28 -7 -103h2q72 107 194 99q8 -74 0 -148h-23q-4 40 -18.5 57t-40.5 17q-64 0 -111 -60v-215q0 -51 16.5 -63.5t78.5 -14.5v-23h-235zM186 -40q-36 -5 -67 -39q11 -22 11 -53 q0 -43 -35 -72v-22q40 7 72 42.5t32 85.5q0 31 -13 58z" unicode="ŗ" glyph-name="uni0157"/>
<glyph horiz-adv-x="679" d="M417 871l19 -9q-62 -62 -127 -148h-2q-69 91 -127 148l19 9q57 -23 114 -69q56 47 104 69zM634 -6q-39 0 -69 12.5t-45 26.5t-36 40l-206 253q-20 25 -37 26v30q96 -8 150 27t54 107q0 118 -153 118q-39 0 -55 -13t-16 -56v-465q0 -50 16.5 -62.5t77.5 -14.5v-23h-249v23 q43 2 56.5 15t13.5 62v465q0 50 -17 62.5t-78 14.5v23h95q52 0 109 2.5t74 2.5q109 0 163.5 -40t54.5 -107q0 -65 -48 -108.5t-128 -55.5v-2l207 -254q42 -51 63 -65.5t54 -14.5v-23q-22 -6 -51 -6z" unicode="Ř" glyph-name="Rcaron"/>
<glyph horiz-adv-x="391" d="M335 724l19 -9q-74 -93 -126 -207h-2q-52 114 -126 207l19 9q61 -42 112 -108q58 73 104 108zM49 0v23q36 2 48 15t12 63v229q0 24 -7.5 33t-22.5 9q-20 0 -43 -10l-10 23l161 75l6 -6q-7 -28 -7 -103h2q72 107 194 99q8 -74 0 -148h-23q-4 40 -18.5 57t-40.5 17 q-64 0 -111 -60v-215q0 -51 16.5 -63.5t78.5 -14.5v-23h-235z" unicode="ř" glyph-name="rcaron"/>
<glyph horiz-adv-x="549" d="M350 870q47 2 75 -29q-61 -77 -171 -117l-11 19q63 42 107 127zM262 -15q-43 0 -85 10.5t-76.5 40.5t-34.5 75q0 47 18 78h23q4 -76 49.5 -120t117.5 -44q69 0 102 36t33 89q0 42 -23.5 74.5t-59 50.5t-77 39.5t-77 42t-59 57t-23.5 85.5q0 81 59.5 131t158.5 50 q86 0 156 -27v-145h-23q-6 66 -39 99t-101 33q-69 0 -103 -31t-34 -76q0 -43 33 -74.5t80 -53t94.5 -46t80.5 -69t33 -106.5q0 -92 -62 -145.5t-161 -53.5z" unicode="Ś" glyph-name="Sacute"/>
<glyph horiz-adv-x="411" d="M265 734q48 2 74 -29q-22 -45 -64 -91.5t-88 -75.5l-11 19q68 72 89 177zM191 -15q-70 0 -108.5 26.5t-38.5 69.5q0 38 27 70h23q2 -132 109 -132q47 0 72.5 23t25.5 56q0 30 -25 52t-60.5 36.5t-71 30t-60.5 43t-25 66.5q0 56 45 92.5t122 36.5q75 0 123 -27v-115h-23 q-14 108 -111 108q-40 0 -61.5 -18t-21.5 -47t25 -50t60 -35.5t70.5 -30.5t60.5 -45.5t25 -70.5q0 -65 -51 -102t-131 -37z" unicode="ś" glyph-name="sacute"/>
<glyph horiz-adv-x="549" d="M402 724q-55 22 -113 69q-61 -49 -105 -69l-19 9q58 57 127 148h2q65 -86 127 -148zM262 -15q-43 0 -85 10.5t-76.5 40.5t-34.5 75q0 47 18 78h23q4 -76 49.5 -120t117.5 -44q69 0 102 36t33 89q0 42 -23.5 74.5t-59 50.5t-77 39.5t-77 42t-59 57t-23.5 85.5 q0 81 59.5 131t158.5 50q86 0 156 -27v-145h-23q-6 66 -39 99t-101 33q-69 0 -103 -31t-34 -76q0 -43 33 -74.5t80 -53t94.5 -46t80.5 -69t33 -106.5q0 -92 -62 -145.5t-161 -53.5z" unicode="Ŝ" glyph-name="Scircumflex"/>
<glyph horiz-adv-x="411" d="M315 518q-60 41 -112 109q-60 -75 -104 -109l-19 9q72 91 126 207h2q54 -116 126 -207zM191 -15q-70 0 -108.5 26.5t-38.5 69.5q0 38 27 70h23q2 -132 109 -132q47 0 72.5 23t25.5 56q0 30 -25 52t-60.5 36.5t-71 30t-60.5 43t-25 66.5q0 56 45 92.5t122 36.5 q75 0 123 -27v-115h-23q-14 108 -111 108q-40 0 -61.5 -18t-21.5 -47t25 -50t60 -35.5t70.5 -30.5t60.5 -45.5t25 -70.5q0 -65 -51 -102t-131 -37z" unicode="ŝ" glyph-name="scircumflex"/>
<glyph horiz-adv-x="549" d="M485 184q0 -83 -52 -136t-138 -61l-10 -45q41 -9 65 -34t24 -59q0 -35 -24.5 -59.5t-64.5 -24.5q-48 0 -78 35l9 14q41 -18 67.5 -11t26.5 33q0 41 -68 53l22 96h-2q-43 0 -85 10.5t-76.5 40.5t-34.5 75q0 47 18 78h23q4 -76 49.5 -120t117.5 -44q69 0 102 36t33 89 q0 42 -23.5 74.5t-59 50.5t-77 39.5t-77 42t-59 57t-23.5 85.5q0 81 59.5 131t158.5 50q86 0 156 -27v-145h-23q-6 66 -39 99t-101 33q-69 0 -103 -31t-34 -76q0 -43 33 -74.5t80 -53t94.5 -46t80.5 -69t33 -106.5z" unicode="Ş" glyph-name="Scedilla"/>
<glyph horiz-adv-x="411" d="M373 124q0 -55 -37.5 -90.5t-99.5 -45.5l-10 -46q41 -9 65 -34t24 -59q0 -35 -24.5 -59.5t-64.5 -24.5q-48 0 -78 35l9 14q41 -18 67.5 -11t26.5 33q0 41 -68 53l22 96h-14q-70 0 -108.5 26.5t-38.5 69.5q0 38 27 70h23q2 -132 109 -132q47 0 72.5 23t25.5 56 q0 30 -25 52t-60.5 36.5t-71 30t-60.5 43t-25 66.5q0 56 45 92.5t122 36.5q75 0 123 -27v-115h-23q-14 108 -111 108q-40 0 -61.5 -18t-21.5 -47t25 -50t60 -35.5t70.5 -30.5t60.5 -45.5t25 -70.5z" unicode="ş" glyph-name="scedilla"/>
<glyph horiz-adv-x="549" d="M402 871l19 -9q-62 -62 -127 -148h-2q-69 91 -127 148l19 9q57 -23 114 -69q56 47 104 69zM262 -15q-43 0 -85 10.5t-76.5 40.5t-34.5 75q0 47 18 78h23q4 -76 49.5 -120t117.5 -44q69 0 102 36t33 89q0 42 -23.5 74.5t-59 50.5t-77 39.5t-77 42t-59 57t-23.5 85.5 q0 81 59.5 131t158.5 50q86 0 156 -27v-145h-23q-6 66 -39 99t-101 33q-69 0 -103 -31t-34 -76q0 -43 33 -74.5t80 -53t94.5 -46t80.5 -69t33 -106.5q0 -92 -62 -145.5t-161 -53.5z" unicode="Š" glyph-name="Scaron"/>
<glyph horiz-adv-x="411" d="M315 724l19 -9q-74 -93 -126 -207h-2q-52 114 -126 207l19 9q61 -42 112 -108q58 73 104 108zM191 -15q-70 0 -108.5 26.5t-38.5 69.5q0 38 27 70h23q2 -132 109 -132q47 0 72.5 23t25.5 56q0 30 -25 52t-60.5 36.5t-71 30t-60.5 43t-25 66.5q0 56 45 92.5t122 36.5 q75 0 123 -27v-115h-23q-14 108 -111 108q-40 0 -61.5 -18t-21.5 -47t25 -50t60 -35.5t70.5 -30.5t60.5 -45.5t25 -70.5q0 -65 -51 -102t-131 -37z" unicode="š" glyph-name="scaron"/>
<glyph horiz-adv-x="621" d="M41 665h539v-156h-23q-3 61 -27 90.5t-94 29.5h-83v-529q0 -50 17 -62.5t78 -14.5v-23h-114l-13 -58q41 -9 65 -34t24 -59q0 -35 -24.5 -59.5t-64.5 -24.5q-48 0 -78 35l9 14q41 -18 67.5 -11t26.5 33q0 41 -68 53l25 111h-105v23q43 2 56.5 15t13.5 62v529h-84 q-69 0 -93 -30t-27 -90h-23v156z" unicode="Ţ" glyph-name="uni0162"/>
<glyph horiz-adv-x="363" d="M224 -58q41 -9 65 -34t24 -59q0 -35 -24.5 -59.5t-64.5 -24.5q-48 0 -78 35l9 14q41 -18 67.5 -11t26.5 33q0 41 -68 53l22 96h-1q-107 0 -107 116v298h-69v41h69v137l85 15q-5 -64 -5 -152h148v-41h-117q-17 0 -24 -7t-7 -24v-246q0 -78 59 -78q44 0 88 43l16 -16 q-45 -69 -104 -83z" unicode="ţ" glyph-name="uni0163"/>
<glyph horiz-adv-x="621" d="M420 871l19 -9q-62 -62 -127 -148h-2q-69 91 -127 148l19 9q57 -23 114 -69q56 47 104 69zM41 665h539v-156h-23q-3 61 -27 90.5t-94 29.5h-83v-529q0 -50 17 -62.5t78 -14.5v-23h-250v23q43 2 56.5 15t13.5 62v529h-84q-69 0 -93 -30t-27 -90h-23v156z" unicode="Ť" glyph-name="Tcaron"/>
<glyph horiz-adv-x="342" d="M256 573h-23q28 96 8 215q33 17 68 2q-2 -131 -53 -217zM322 87l16 -16q-57 -86 -136 -86q-107 0 -107 116v298h-69v41h69v137l85 15q-5 -64 -5 -152h148v-41h-117q-17 0 -24 -7t-7 -24v-246q0 -78 59 -78q44 0 88 43z" unicode="ť" glyph-name="tcaron"/>
<glyph horiz-adv-x="621" d="M41 665h539v-156h-23q-3 61 -27 90.5t-94 29.5h-83v-233h130v-36h-130v-260q0 -50 17 -62.5t78 -14.5v-23h-250v23q43 2 56.5 15t13.5 62v260h-129v36h129v233h-84q-69 0 -93 -30t-27 -90h-23v156z" unicode="Ŧ" glyph-name="Tbar"/>
<glyph horiz-adv-x="363" d="M322 87l16 -16q-57 -86 -136 -86q-107 0 -107 116v167h-69v36h69v95h-69v41h69v137l85 15q-5 -64 -5 -152h148v-41h-117q-17 0 -24 -7t-7 -24v-64h147v-36h-147v-146q0 -78 59 -78q44 0 88 43z" unicode="ŧ" glyph-name="tbar"/>
<glyph horiz-adv-x="774" d="M306 791q-40 0 -63 -58l-22 5q28 113 103 113q31 0 78 -29t67 -29q40 0 63 58l23 -5q-16 -61 -41.5 -87t-62.5 -26q-31 0 -78 29t-67 29zM301 -15q-85 0 -129 46.5t-44 130.5v403q0 50 -15.5 62.5t-70.5 14.5v23h241v-23q-43 -2 -56.5 -15t-13.5 -62v-380 q0 -135 113 -135q95 0 164 80t69 192v243q0 50 -16.5 62.5t-77.5 14.5v23h244v-23q-43 -2 -56.5 -15t-13.5 -62v-466q0 -49 14 -61.5t61 -14.5v-23h-142q-12 32 -12 100v85h-2q-83 -200 -257 -200z" unicode="Ũ" glyph-name="Utilde"/>
<glyph horiz-adv-x="567" d="M219 600q-22 0 -35 -14t-20 -45l-23 5q12 113 87 113q32 0 73 -29.5t61 -29.5q22 0 35 14t20 45l23 -5q-12 -113 -87 -113q-31 0 -73 29.5t-61 29.5zM542 77l10 -23l-162 -75l-6 6q7 28 7 92h-2q-90 -92 -174 -92q-112 0 -112 115v230q0 42 -31 42q-20 0 -43 -10l-10 23 l162 75l6 -6q-4 -22 -4 -123v-206q0 -37 15 -56t52 -19q67 0 138 57v223q0 24 -7.5 33t-23.5 9q-22 0 -52 -14l-10 23l171 79l6 -6q-4 -22 -4 -123v-219q0 -26 7.5 -35t23.5 -9q22 0 43 9z" unicode="ũ" glyph-name="utilde"/>
<glyph horiz-adv-x="774" d="M218 823h328v-59h-328v59zM301 -15q-85 0 -129 46.5t-44 130.5v403q0 50 -15.5 62.5t-70.5 14.5v23h241v-23q-43 -2 -56.5 -15t-13.5 -62v-380q0 -135 113 -135q95 0 164 80t69 192v243q0 50 -16.5 62.5t-77.5 14.5v23h244v-23q-43 -2 -56.5 -15t-13.5 -62v-466 q0 -49 14 -61.5t61 -14.5v-23h-142q-12 32 -12 100v85h-2q-83 -200 -257 -200z" unicode="Ū" glyph-name="Umacron"/>
<glyph horiz-adv-x="567" d="M156 636h266v-58h-266v58zM542 77l10 -23l-162 -75l-6 6q7 28 7 92h-2q-90 -92 -174 -92q-112 0 -112 115v230q0 42 -31 42q-20 0 -43 -10l-10 23l162 75l6 -6q-4 -22 -4 -123v-206q0 -37 15 -56t52 -19q67 0 138 57v223q0 24 -7.5 33t-23.5 9q-22 0 -52 -14l-10 23 l171 79l6 -6q-4 -22 -4 -123v-219q0 -26 7.5 -35t23.5 -9q22 0 43 9z" unicode="ū" glyph-name="umacron"/>
<glyph horiz-adv-x="774" d="M381 693q-45 0 -75.5 27.5t-30.5 68.5q0 42 31 71.5t78 29.5q45 0 76 -27.5t31 -68.5q0 -42 -31.5 -71.5t-78.5 -29.5zM384 728q21 0 35.5 16t14.5 47t-15.5 48t-36.5 17t-35.5 -16.5t-14.5 -46.5q0 -32 15.5 -48.5t36.5 -16.5zM301 -15q-85 0 -129 46.5t-44 130.5v403 q0 50 -15.5 62.5t-70.5 14.5v23h241v-23q-43 -2 -56.5 -15t-13.5 -62v-380q0 -135 113 -135q95 0 164 80t69 192v243q0 50 -16.5 62.5t-77.5 14.5v23h244v-23q-43 -2 -56.5 -15t-13.5 -62v-466q0 -49 14 -61.5t61 -14.5v-23h-142q-12 32 -12 100v85h-2q-83 -200 -257 -200z " unicode="Ů" glyph-name="Uring"/>
<glyph horiz-adv-x="567" d="M289 517q-46 0 -75 28t-29 70t29.5 70.5t74.5 28.5t74.5 -28.5t29.5 -69.5t-30 -70t-74 -29zM291 551q20 0 34.5 17t14.5 45q0 33 -16.5 49.5t-37.5 16.5q-20 0 -34 -17t-14 -45q0 -32 16 -49t37 -17zM542 77l10 -23l-162 -75l-6 6q7 28 7 92h-2q-90 -92 -174 -92 q-112 0 -112 115v230q0 42 -31 42q-20 0 -43 -10l-10 23l162 75l6 -6q-4 -22 -4 -123v-206q0 -37 15 -56t52 -19q67 0 138 57v223q0 24 -7.5 33t-23.5 9q-22 0 -52 -14l-10 23l171 79l6 -6q-4 -22 -4 -123v-219q0 -26 7.5 -35t23.5 -9q22 0 43 9z" unicode="ů" glyph-name="uring"/>
<glyph horiz-adv-x="774" d="M390 880q46 2 74 -29q-61 -77 -171 -117l-11 19q64 43 108 127zM531 880q48 2 74 -29q-61 -77 -171 -117l-11 19q64 42 108 127zM301 -15q-85 0 -129 46.5t-44 130.5v403q0 50 -15.5 62.5t-70.5 14.5v23h241v-23q-43 -2 -56.5 -15t-13.5 -62v-380q0 -135 113 -135 q95 0 164 80t69 192v243q0 50 -16.5 62.5t-77.5 14.5v23h244v-23q-43 -2 -56.5 -15t-13.5 -62v-466q0 -49 14 -61.5t61 -14.5v-23h-142q-12 32 -12 100v85h-2q-83 -200 -257 -200z" unicode="Ű" glyph-name="Uhungarumlaut"/>
<glyph horiz-adv-x="567" d="M278 734q19 1 40 -7t32 -22q-40 -101 -142 -167l-11 19q60 72 81 177zM400 734q19 1 40.5 -7t32.5 -22q-42 -102 -143 -167l-11 21q62 72 81 175zM542 77l10 -23l-162 -75l-6 6q7 28 7 92h-2q-90 -92 -174 -92q-112 0 -112 115v230q0 42 -31 42q-20 0 -43 -10l-10 23 l162 75l6 -6q-4 -22 -4 -123v-206q0 -37 15 -56t52 -19q67 0 138 57v223q0 24 -7.5 33t-23.5 9q-22 0 -52 -14l-10 23l171 79l6 -6q-4 -22 -4 -123v-219q0 -26 7.5 -35t23.5 -9q22 0 43 9z" unicode="ű" glyph-name="uhungarumlaut"/>
<glyph horiz-adv-x="774" d="M639 99q0 -49 14 -61.5t61 -14.5v-23h-43q-59 0 -91.5 -42.5t-32.5 -86.5q0 -37 26 -51.5t62 -4.5l11 -16q-30 -34 -81 -34q-40 0 -66 21t-26 63q0 83 108 149v2h-9q-12 32 -12 100v85h-2q-83 -200 -257 -200q-85 0 -129 46.5t-44 130.5v403q0 50 -15.5 62.5t-70.5 14.5 v23h241v-23q-43 -2 -56.5 -15t-13.5 -62v-380q0 -135 113 -135q95 0 164 80t69 192v243q0 50 -16.5 62.5t-77.5 14.5v23h244v-23q-43 -2 -56.5 -15t-13.5 -62v-466z" unicode="Ų" glyph-name="Uogonek"/>
<glyph horiz-adv-x="566" d="M399 -235q-37 0 -61.5 22t-24.5 59q0 40 29.5 77t71.5 60v3q-23 34 -23 91h-2q-89 -92 -174 -92q-112 0 -112 115l1 230q0 26 -7.5 35.5t-23.5 9.5q-19 0 -44 -10l-10 23l162 75l6 -6q-4 -22 -4 -126v-206q0 -37 15 -56t52 -19q67 0 138 57v223q0 26 -7.5 35.5t-23.5 9.5 q-23 0 -53 -14l-10 23l172 79l6 -6q-4 -22 -4 -126v-219q0 -26 7 -35t23 -9q22 0 43 9l10 -23l-77 -53q-91 -62 -91 -136q0 -34 25.5 -46.5t61.5 -3.5l11 -16q-30 -34 -82 -34z" unicode="ų" glyph-name="uogonek"/>
<glyph horiz-adv-x="955" d="M604 724q-55 22 -113 69q-61 -49 -105 -69l-19 9q58 57 127 148h2q65 -86 127 -148zM226 -8q-5 38 -18 87l-122 486q-12 49 -25 62t-45 15v23h234l-1 -23q-61 -2 -72.5 -15t0.5 -62l104 -412h2l188 520h51q36 -102 38 -108l157 -412h3l107 412q10 37 -9 56t-69 21l1 23 h191v-23q-46 -4 -66 -77l-129 -486q-13 -49 -18 -87h-52q-6 31 -27 87l-173 463h-2l-171 -463q-15 -42 -25 -87h-52z" unicode="Ŵ" glyph-name="Wcircumflex"/>
<glyph horiz-adv-x="708" d="M356 627q-60 -75 -104 -109l-19 9q72 91 126 207h2q54 -116 126 -207l-19 -9q-60 41 -112 109zM535 440h177v-23q-27 -2 -42.5 -16t-32.5 -59l-99 -263q-18 -46 -26 -87h-44q-5 18 -31 87l-78 203l-82 -203q-18 -43 -28 -87h-43q-10 38 -30 87l-106 263q-19 47 -34 60 t-46 15v23h201v-23q-43 -2 -49 -15t13 -60l91 -229h2l90 224l-2 5q-18 46 -32 59t-36 16v23h190v-23q-45 -2 -51.5 -15t11.5 -60l88 -229h2l85 229q16 47 5 60t-63 15v23z" unicode="ŵ" glyph-name="wcircumflex"/>
<glyph horiz-adv-x="553" d="M408 724q-55 22 -113 69q-61 -49 -105 -69l-19 9q58 57 127 148h2q65 -86 127 -148zM363 665h186v-23q-22 -2 -41.5 -19.5t-43.5 -57.5l-127 -214q-19 -31 -19 -68v-183q0 -50 16.5 -62.5t77.5 -14.5v-23h-249v23q43 2 56.5 15t13.5 62v183q0 37 -17 68l-120 214 q-28 49 -44.5 62t-50.5 15v23h223v-23q-45 -2 -51 -15.5t20 -61.5l106 -193h2l114 193q22 40 9 57.5t-61 19.5v23z" unicode="Ŷ" glyph-name="Ycircumflex"/>
<glyph horiz-adv-x="472" d="M346 518q-60 41 -112 109q-60 -75 -104 -109l-19 9q72 91 126 207h2q54 -116 126 -207zM69 -235q-35 0 -54.5 21.5t-19.5 59.5q0 29 15 69h23q3 -44 15.5 -64.5t38.5 -20.5q29 0 61 43t77 135l-149 334q-21 47 -36.5 60t-44.5 15v23h213v-23q-49 -2 -56.5 -15t13.5 -60 l100 -230h2l93 230q10 24 12 38t-6.5 22t-23 11t-43.5 4v23h178v-23q-25 -2 -40 -16t-33 -59l-107 -263q-30 -74 -47.5 -114.5t-41 -85t-42.5 -65.5t-44 -35t-53 -14z" unicode="ŷ" glyph-name="ycircumflex"/>
<glyph horiz-adv-x="553" d="M196 746q-20 0 -34.5 14.5t-14.5 34.5t14.5 34.5t34.5 14.5q21 0 35.5 -14.5t14.5 -34.5t-14.5 -34.5t-35.5 -14.5zM402 746q-20 0 -34.5 14.5t-14.5 34.5t14.5 34.5t34.5 14.5q21 0 35.5 -14.5t14.5 -34.5t-14.5 -34.5t-35.5 -14.5zM363 665h186v-23q-22 -2 -41.5 -19.5 t-43.5 -57.5l-127 -214q-19 -31 -19 -68v-183q0 -50 16.5 -62.5t77.5 -14.5v-23h-249v23q43 2 56.5 15t13.5 62v183q0 37 -17 68l-120 214q-28 49 -44.5 62t-50.5 15v23h223v-23q-45 -2 -51 -15.5t20 -61.5l106 -193h2l114 193q22 40 9 57.5t-61 19.5v23z" unicode="Ÿ" glyph-name="Ydieresis"/>
<glyph horiz-adv-x="587" d="M363 870q47 2 75 -29q-61 -77 -171 -117l-11 19q63 42 107 127zM37 0v23q12 14 36 52l341 552v2l-220 -7q-56 -2 -75 -29t-23 -84h-23v156h453v-23q-9 -12 -35 -52l-342 -552v-2l237 8q126 4 135 112h23l-8 -156h-499z" unicode="Ź" glyph-name="Zacute"/>
<glyph horiz-adv-x="470" d="M300 734q48 2 74 -29q-22 -45 -64 -91.5t-88 -75.5l-11 19q68 72 89 177zM39 0v23q27 31 42 52l231 331v3l-127 -4q-58 -2 -76 -26t-20 -81h-23v142h355v-23q-22 -23 -42 -52l-232 -331v-3l135 4q121 2 132 112h23l-8 -147h-390z" unicode="ź" glyph-name="zacute"/>
<glyph horiz-adv-x="587" d="M306 741q-22 0 -36.5 15t-14.5 37q0 21 14.5 36t36.5 15t37 -15t15 -36q0 -22 -15 -37t-37 -15zM37 0v23q12 14 36 52l341 552v2l-220 -7q-56 -2 -75 -29t-23 -84h-23v156h453v-23q-9 -12 -35 -52l-342 -552v-2l237 8q126 4 135 112h23l-8 -156h-499z" unicode="Ż" glyph-name="Zdotaccent"/>
<glyph horiz-adv-x="470" d="M242 554q-22 0 -37 15t-15 37q0 21 15 36t37 15t37 -15t15 -36q0 -22 -15 -37t-37 -15zM39 0v23q27 31 42 52l231 331v3l-127 -4q-58 -2 -76 -26t-20 -81h-23v142h355v-23q-22 -23 -42 -52l-232 -331v-3l135 4q121 2 132 112h23l-8 -147h-390z" unicode="ż" glyph-name="zdotaccent"/>
<glyph horiz-adv-x="587" d="M415 871l19 -9q-62 -62 -127 -148h-2q-69 91 -127 148l19 9q57 -23 114 -69q56 47 104 69zM37 0v23q12 14 36 52l341 552v2l-220 -7q-56 -2 -75 -29t-23 -84h-23v156h453v-23q-9 -12 -35 -52l-342 -552v-2l237 8q126 4 135 112h23l-8 -156h-499z" unicode="Ž" glyph-name="Zcaron"/>
<glyph horiz-adv-x="470" d="M350 724l19 -9q-73 -93 -126 -207h-2q-53 114 -126 207l19 9q61 -42 112 -108q58 73 104 108zM39 0v23q27 31 42 52l231 331v3l-127 -4q-58 -2 -76 -26t-20 -81h-23v142h355v-23q-22 -23 -42 -52l-232 -331v-3l135 4q121 2 132 112h23l-8 -147h-390z" unicode="ž" glyph-name="zcaron"/>
<glyph horiz-adv-x="560" d="M337 457q74 0 125.5 -56.5t51.5 -153.5q0 -120 -78.5 -190t-178.5 -70q-61 0 -105 18l-54 -15v566h-86v36h86v65q0 26 -7.5 35t-23.5 9q-26 0 -54 -14l-10 23l173 80l6 -6q-4 -22 -4 -126v-66h138v-36h-138v-190q65 91 159 91zM283 32q68 0 108.5 45.5t40.5 135.5 q0 85 -34.5 134.5t-91.5 49.5q-62 0 -128 -62v-262q39 -41 105 -41z" unicode="ƀ" glyph-name="uni0180"/>
<glyph horiz-adv-x="244" d="M39 -135v23q33 13 45.5 57.5t19.5 144.5l22 321h-70v31h72q10 145 55 233.5t103 114.5q32 -27 34 -89t-16 -108h-22q5 48 -3 84t-25 36q-11 0 -19 -22t-16.5 -83t-15.5 -166h112v-31h-85q-17 0 -23.5 -7t-8.5 -26l-21 -303q-7 -98 -47.5 -153t-90.5 -57z" unicode="ƒ" glyph-name="florin"/>
<glyph horiz-adv-x="635" d="M425 871l19 -9q-62 -62 -127 -148h-2q-69 91 -127 148l19 9q57 -23 114 -69q56 47 104 69zM543 100q17 -50 33 -62.5t58 -14.5v-23h-239v23q53 2 63.5 14.5t-4.5 62.5l-57 172q-8 -8 -36 -8h-131q-23 0 -33.5 -5.5t-18.5 -26.5l-47 -132q-13 -40 2 -57.5t76 -19.5v-23 h-207v23q31 2 49.5 20t33.5 57l177 486q29 77 35 102h49q9 -34 34 -102zM363 300q14 0 18 4t0 15l-82 243h-2l-96 -265q6 3 28 3h134z" unicode="Ǎ" glyph-name="uni01CD"/>
<glyph horiz-adv-x="480" d="M242 508h-2q-52 114 -126 207l19 9q61 -42 112 -108q58 73 104 108l19 -9q-74 -93 -126 -207zM472 85l16 -16q-46 -79 -110 -79q-66 0 -81 67h-2q-55 -72 -137 -72q-48 0 -77 24.5t-29 70.5q0 58 55.5 99t187.5 74v65q0 95 -84 95q-91 0 -113 -121h-23v125q79 38 162 38 q77 0 107.5 -30t30.5 -86v-242q0 -53 33 -53q29 0 64 41zM295 88v134q-96 -24 -128.5 -55.5t-32.5 -66.5q0 -28 17 -42t44 -14q48 0 100 44z" unicode="ǎ" glyph-name="uni01CE"/>
<glyph horiz-adv-x="375" d="M297 871l19 -9q-62 -62 -127 -148h-2q-69 91 -127 148l19 9q57 -23 114 -69q56 47 104 69zM75 0v23q43 2 56.5 15t13.5 62v465q0 50 -17 62.5t-78 14.5v23h250v-23q-43 -2 -56.5 -15t-13.5 -62v-465q0 -50 17 -62.5t78 -14.5v-23h-250z" unicode="Ǐ" glyph-name="uni01CF"/>
<glyph horiz-adv-x="293" d="M258 724l19 -9q-73 -93 -126 -207h-2q-53 114 -126 207l19 9q61 -42 112 -108q58 73 104 108zM190 101q0 -51 15.5 -63.5t69.5 -14.5v-23h-225v23q36 2 48 15t12 63v226q0 26 -7.5 35.5t-23.5 9.5q-22 0 -54 -14l-10 23l173 79l6 -6q-4 -22 -4 -126v-227z" unicode="ǐ" glyph-name="uni01D0"/>
<glyph d="M505 871l19 -9q-62 -62 -127 -148h-2q-69 91 -127 148l19 9q57 -23 114 -69q56 47 104 69zM395 680q139 0 237 -96t98 -250t-98 -251.5t-238 -97.5q-139 0 -236.5 96t-97.5 250t98 251.5t237 97.5zM409 25q95 0 162 77t67 213q0 149 -77 237t-180 88q-96 0 -162.5 -77 t-66.5 -213q0 -149 77 -237t180 -88z" unicode="Ǒ" glyph-name="uni01D1"/>
<glyph horiz-adv-x="535" d="M365 724l19 -9q-74 -93 -126 -207h-2q-52 114 -126 207l19 9q61 -42 112 -108q58 73 104 108zM274 455q89 0 152 -63.5t63 -163.5q0 -112 -71 -177.5t-158 -65.5q-89 0 -151.5 63.5t-62.5 163.5q0 112 70.5 177.5t157.5 65.5zM277 25q60 0 93.5 43.5t33.5 130.5 q0 93 -41 154.5t-106 61.5q-59 0 -92.5 -43.5t-33.5 -130.5q0 -92 41 -154t105 -62z" unicode="ǒ" glyph-name="uni01D2"/>
<glyph horiz-adv-x="774" d="M491 871l19 -9q-62 -62 -127 -148h-2q-69 91 -127 148l19 9q57 -23 114 -69q56 47 104 69zM301 -15q-85 0 -129 46.5t-44 130.5v403q0 50 -15.5 62.5t-70.5 14.5v23h241v-23q-43 -2 -56.5 -15t-13.5 -62v-380q0 -135 113 -135q95 0 164 80t69 192v243q0 50 -16.5 62.5 t-77.5 14.5v23h244v-23q-43 -2 -56.5 -15t-13.5 -62v-466q0 -49 14 -61.5t61 -14.5v-23h-142q-12 32 -12 100v85h-2q-83 -200 -257 -200z" unicode="Ǔ" glyph-name="uni01D3"/>
<glyph horiz-adv-x="567" d="M396 724l19 -9q-73 -93 -126 -207h-2q-53 114 -126 207l19 9q61 -42 112 -108q58 73 104 108zM542 77l10 -23l-162 -75l-6 6q7 28 7 92h-2q-90 -92 -174 -92q-112 0 -112 115v230q0 42 -31 42q-20 0 -43 -10l-10 23l162 75l6 -6q-4 -22 -4 -123v-206q0 -37 15 -56t52 -19 q67 0 138 57v223q0 24 -7.5 33t-23.5 9q-22 0 -52 -14l-10 23l171 79l6 -6q-4 -22 -4 -123v-219q0 -26 7.5 -35t23.5 -9q22 0 43 9z" unicode="ǔ" glyph-name="uni01D4"/>
<glyph d="M416 -14q-32 -18 -49 -51.5t-17 -63.5q0 -37 26 -51.5t62 -4.5l11 -16q-30 -34 -81 -34q-40 0 -66 21t-26 63q0 76 90 137q-130 11 -218 105t-88 240q0 154 98 251.5t237 97.5t237 -96t98 -250q0 -147 -90.5 -243.5t-223.5 -104.5zM152 350q0 -149 77 -237t180 -88 q95 0 162 77t67 213q0 149 -77 237t-180 88q-96 0 -162.5 -77t-66.5 -213z" unicode="Ǫ" glyph-name="uni01EA"/>
<glyph horiz-adv-x="535" d="M324 -5q-85 -61 -85 -130q0 -34 25.5 -46.5t61.5 -3.5l11 -16q-30 -34 -82 -34q-37 0 -61.5 22t-24.5 59q0 41 30 78t72 61h-11q-89 0 -151.5 63.5t-62.5 163.5q0 112 70.5 177.5t157.5 65.5q89 0 152 -63.5t63 -163.5q0 -90 -47.5 -151t-117.5 -82zM131 241 q0 -92 41 -154t105 -62q60 0 93.5 43.5t33.5 130.5q0 93 -41 154.5t-106 61.5q-59 0 -92.5 -43.5t-33.5 -130.5z" unicode="ǫ" glyph-name="uni01EB"/>
<glyph horiz-adv-x="880" d="M608 870q47 2 75 -29q-61 -77 -171 -117l-11 19q63 42 107 127zM822 156h23l-8 -156h-491v23q43 2 56.5 15t13.5 62v172q-9 -8 -37 -8h-99q-38 0 -50 -21l-82 -143q-24 -37 -10 -56t76 -21v-23h-212v23q31 2 51 19.5t44 57.5l304 519q-20 21 -93 23v23h461v-140h-23 q-3 54 -25.5 79t-88.5 25h-87q-24 0 -34 -12t-10 -52v-188q14 10 47 10h113q59 0 62 66h23v-170h-23q-1 40 -14 54t-48 14h-111q-28 0 -38.5 -9t-10.5 -35v-207q0 -42 14.5 -53t61.5 -11h111q123 0 134 120zM416 329v234h-2l-152 -266q7 3 28 3h100q15 0 20.5 5.5t5.5 23.5z " unicode="Ǽ" glyph-name="AEacute"/>
<glyph horiz-adv-x="707" d="M503 707q-22 -45 -64 -91.5t-88 -75.5l-11 19q68 72 89 177q48 2 74 -29zM660 109l16 -16q-64 -108 -182 -108q-52 0 -96.5 24t-70.5 70q-69 -94 -167 -94q-49 0 -78.5 25t-29.5 69q0 59 54.5 102.5t189.5 73.5v63q0 100 -84 100q-91 0 -113 -121h-23v120q79 38 162 38 q100 0 123 -65q62 65 149 65q69 0 115 -41t46 -117l-299 -59q3 -87 44.5 -137t108.5 -50q72 0 135 58zM490 418q-55 0 -84 -41t-33 -106l209 40q-12 107 -92 107zM196 44q63 0 116 65q-16 45 -16 98v2v14q-52 -12 -87 -28t-49.5 -33.5t-19.5 -31t-5 -30.5q0 -28 17 -42 t44 -14z" unicode="ǽ" glyph-name="aeacute"/>
<glyph d="M528 841q-61 -77 -171 -117l-11 19q63 42 107 127q47 2 75 -29zM585 623q67 -46 106 -120.5t39 -168.5q0 -154 -98 -251.5t-238 -97.5q-117 0 -206 69l-60 -85l-28 18l62 89q-102 100 -102 255q0 154 98 251.5t237 97.5q87 0 162 -40l39 56l28 -18zM152 350 q0 -122 56 -209l314 449q-64 50 -141 50q-96 0 -162.5 -77t-66.5 -213zM409 25q95 0 162 77t67 213q0 159 -91 253l-318 -455q74 -88 180 -88z" unicode="Ǿ" glyph-name="Oslashacute"/>
<glyph horiz-adv-x="535" d="M389 705q-22 -45 -64 -91.5t-88 -75.5l-11 19q68 72 89 177q48 2 74 -29zM414 402q75 -65 75 -174q0 -112 -71 -177.5t-158 -65.5q-62 0 -114 33l-49 -70l-28 19l50 72q-73 66 -73 173q0 112 70.5 177.5t157.5 65.5q63 0 113 -32l50 71l28 -19zM131 241q0 -80 32 -139 l187 268q-39 45 -93 45q-59 0 -92.5 -43.5t-33.5 -130.5zM277 25q60 0 93.5 43.5t33.5 130.5q0 83 -33 141l-188 -268q39 -47 94 -47z" unicode="ǿ" glyph-name="oslashacute"/>
<glyph horiz-adv-x="549" d="M262 -15q-43 0 -85 10.5t-76.5 40.5t-34.5 75q0 47 18 78h23q4 -76 49.5 -120t117.5 -44q69 0 102 36t33 89q0 42 -23.5 74.5t-59 50.5t-77 39.5t-77 42t-59 57t-23.5 85.5q0 81 59.5 131t158.5 50q86 0 156 -27v-145h-23q-6 66 -39 99t-101 33q-69 0 -103 -31t-34 -76 q0 -43 33 -74.5t80 -53t94.5 -46t80.5 -69t33 -106.5q0 -92 -62 -145.5t-161 -53.5zM305 -40q-36 -5 -67 -39q11 -22 11 -53q0 -43 -35 -72v-22q40 7 72 42.5t32 85.5q0 31 -13 58z" unicode="Ș" glyph-name="uni0218"/>
<glyph horiz-adv-x="411" d="M191 -15q-70 0 -108.5 26.5t-38.5 69.5q0 38 27 70h23q2 -132 109 -132q47 0 72.5 23t25.5 56q0 30 -25 52t-60.5 36.5t-71 30t-60.5 43t-25 66.5q0 56 45 92.5t122 36.5q75 0 123 -27v-115h-23q-14 108 -111 108q-40 0 -61.5 -18t-21.5 -47t25 -50t60 -35.5t70.5 -30.5 t60.5 -45.5t25 -70.5q0 -65 -51 -102t-131 -37zM246 -40q-36 -5 -67 -39q11 -22 11 -53q0 -43 -35 -72v-22q40 7 72 42.5t32 85.5q0 31 -13 58z" unicode="ș" glyph-name="uni0219"/>
<glyph horiz-adv-x="621" d="M41 665h539v-156h-23q-3 61 -27 90.5t-94 29.5h-83v-529q0 -50 17 -62.5t78 -14.5v-23h-250v23q43 2 56.5 15t13.5 62v529h-84q-69 0 -93 -30t-27 -90h-23v156zM341 -40q-36 -5 -67 -39q11 -22 11 -53q0 -43 -35 -72v-22q40 7 72 42.5t32 85.5q0 31 -13 58z" unicode="Ț" glyph-name="uni021A"/>
<glyph horiz-adv-x="363" d="M322 87l16 -16q-57 -86 -136 -86q-107 0 -107 116v298h-69v41h69v137l85 15q-5 -64 -5 -152h148v-41h-117q-17 0 -24 -7t-7 -24v-246q0 -78 59 -78q44 0 88 43zM177 -79q31 34 67 39q13 -27 13 -58q0 -50 -32 -85.5t-72 -42.5v22q35 29 35 72q0 31 -11 53z" unicode="ț" glyph-name="uni021B"/>
<glyph horiz-adv-x="628" d="M585 0h-214l-13 -58q41 -9 65 -34t24 -59q0 -35 -24.5 -59.5t-64.5 -24.5q-48 0 -78 35l9 14q41 -18 67.5 -11t26.5 33q0 41 -68 53l25 111h-274v23q43 2 56.5 15t13.5 62v465q0 50 -17 62.5t-78 14.5v23h476v-140h-23q-3 53 -26 78.5t-88 25.5h-115q-24 0 -34 -12 t-10 -52v-188q14 10 47 10h141q59 0 62 66h23v-170h-23q-1 40 -14 54t-48 14h-139q-28 0 -38.5 -9t-10.5 -35v-207q0 -42 14.5 -53t61.5 -11h139q123 0 134 120h23z" unicode="Ȩ" glyph-name="uni0228"/>
<glyph horiz-adv-x="462" d="M431 93q-53 -90 -148 -105l-10 -46q41 -9 65 -34t24 -59q0 -35 -24.5 -59.5t-64.5 -24.5q-48 0 -78 35l9 14q41 -18 67.5 -11t26.5 33q0 41 -68 53l22 96h-3q-84 0 -143.5 57t-59.5 163q0 111 63.5 180.5t155.5 69.5q69 0 115 -41t46 -117l-300 -39v-11q0 -91 42 -143.5 t112 -52.5q72 0 135 58zM244 418q-50 0 -78.5 -35t-36.5 -93l207 27q-14 101 -92 101z" unicode="ȩ" glyph-name="uni0229"/>
<glyph d="M396 741q-22 0 -36.5 15t-14.5 37q0 21 14.5 36t36.5 15t37 -15t15 -36q0 -22 -15 -37t-37 -15zM395 680q139 0 237 -96t98 -250t-98 -251.5t-238 -97.5q-139 0 -236.5 96t-97.5 250t98 251.5t237 97.5zM409 25q95 0 162 77t67 213q0 149 -77 237t-180 88 q-96 0 -162.5 -77t-66.5 -213q0 -149 77 -237t180 -88z" unicode="Ȯ" glyph-name="uni022E"/>
<glyph horiz-adv-x="553" d="M135 823h328v-59h-328v59zM363 665h186v-23q-22 -2 -41.5 -19.5t-43.5 -57.5l-127 -214q-19 -31 -19 -68v-183q0 -50 16.5 -62.5t77.5 -14.5v-23h-249v23q43 2 56.5 15t13.5 62v183q0 37 -17 68l-120 214q-28 49 -44.5 62t-50.5 15v23h223v-23q-45 -2 -51 -15.5t20 -61.5 l106 -193h2l114 193q22 40 9 57.5t-61 19.5v23z" unicode="Ȳ" glyph-name="uni0232"/>
<glyph horiz-adv-x="472" d="M106 636h266v-58h-266v58zM69 -235q-35 0 -54.5 21.5t-19.5 59.5q0 29 15 69h23q3 -44 15.5 -64.5t38.5 -20.5q29 0 61 43t77 135l-149 334q-21 47 -36.5 60t-44.5 15v23h213v-23q-49 -2 -56.5 -15t13.5 -60l100 -230h2l93 230q10 24 12 38t-6.5 22t-23 11t-43.5 4v23 h178v-23q-25 -2 -40 -16t-33 -59l-107 -263q-30 -74 -47.5 -114.5t-41 -85t-42.5 -65.5t-44 -35t-53 -14z" unicode="ȳ" glyph-name="uni0233"/>
<glyph horiz-adv-x="282" d="M184 460l6 -6q-4 -22 -4 -126v-341q0 -101 -46 -161t-131 -61v22q48 9 72.5 58.5t24.5 156.5v325q0 26 -7.5 35.5t-23.5 9.5q-22 0 -54 -14l-10 23z" unicode="ȷ" glyph-name="uni0237"/>
<glyph horiz-adv-x="663" d="M401 382q94 -5 153 -49.5t59 -121.5q0 -87 -67.5 -149t-198.5 -62h-281v23q43 2 56.5 15t13.5 62v91h-99v36h99v338q0 50 -17 62.5t-78 14.5v23h95q52 0 110 2.5t89 2.5q102 0 150.5 -35t48.5 -97q0 -106 -133 -154v-2zM221 565v-195q17 12 52 15t61.5 9.5t54 21t43 42.5 t15.5 67q0 109 -145 109q-47 0 -64 -12.5t-17 -56.5zM339 36q97 0 142 50t45 117q0 77 -58.5 113t-152.5 36q-51 0 -72.5 -13t-21.5 -46v-66h160v-36h-160v-91q0 -42 22.5 -53t95.5 -11z" unicode="Ƀ" glyph-name="uni0243"/>
<glyph horiz-adv-x="602" d="M499 101q0 -51 15 -63.5t70 -14.5v-23h-225v23q36 2 48 15t12 63v255q0 26 -11 34.5t-41 8.5h-149q-17 0 -24 -7t-7 -24v-267q0 -50 12 -63t48 -15v-23h-199v23q36 2 48 15t12 63v298h-69v41h69v71q0 144 98 218t254 61q12 -69 0 -138h-23q-5 48 -26.5 70t-69.5 22 q-70 0 -112 -60t-42 -176v-68h116q106 0 194 21l6 -6q-4 -22 -4 -124v-230z" unicode="ﬁ" glyph-name="fi"/>
</font>
</defs>
</svg>
